<?xml version="1.0" encoding="UTF-8"?>
<svg id="Layer_1" data-name="Layer 1" xmlns="http://www.w3.org/2000/svg" xmlns:xlink="http://www.w3.org/1999/xlink" viewBox="0 0 72.19 83.66">
  <defs>
    <style>
      .cls-1 {
        fill: url(#linear-gradient);
      }

      .cls-1, .cls-2, .cls-3 {
        stroke-width: 0px;
      }

      .cls-2 {
        fill: #f26724;
      }

      .cls-3 {
        fill: url(#linear-gradient-2);
      }
    </style>
    <linearGradient id="linear-gradient" x1="31.15" y1="0" x2="31.15" y2="83.66" gradientUnits="userSpaceOnUse">
      <stop offset="0" stop-color="#187aba"/>
      <stop offset=".6" stop-color="#187aba"/>
      <stop offset="1" stop-color="#27397b"/>
    </linearGradient>
    <linearGradient id="linear-gradient-2" x1="49.99" y1="21.12" x2="49.99" y2="62.36" gradientUnits="userSpaceOnUse">
      <stop offset="0" stop-color="#8b5a24"/>
      <stop offset="1" stop-color="#441a12"/>
    </linearGradient>
  </defs>
  <g id="Icon">
    <path class="cls-1" d="M42.17,83.66c8.17,0,14.48-1.49,20.04-4.26l-4.45-11.29c-4.43,2.44-9.54,3.84-14.98,3.84-9.49,0-17.4-3.06-22.88-8.85-5.02-5.31-7.79-12.83-7.79-21.17s2.88-15.82,8.12-21.3c5.61-5.87,13.4-8.98,22.54-8.98,5.51,0,10.69,1.45,15.16,3.98l4.36-11.07C56.16,1.6,49.38,0,42.4,0c-11.39,0-21.97,4.05-29.79,11.42C4.48,19.07,0,29.83,0,41.72c0,24.7,17.34,41.95,42.17,41.95Z"/>
    <path class="cls-3" d="M63.54,21.12c-2.74,1.07-4.92,3.63-6.4,5.36-.34.39-.63.74-.89,1.02-.24.26-.45.46-.62.58-.06-.23-.41-.79-1.02-1.37-.22-.21-.48-.43-.78-.63-.86-.58-2.02-1.06-3.48-1.06s-2.53.54-3.33,1.46c-1.29,1.5-1.7,3.66-1.66,4.83.01.39-1.44,1.31-2.48,1.96-.52.33-1.96,1.87-2.67,2.68-1.43,1.66-3.27,3.78-4.15,5.42-.29.53-.25,1.52-.22,2.48.03.86.06,1.71-.14,2.21-.73,1.83-3.5,4.55-5.57,6.58-1.18,1.16-2.13,2.09-2.34,2.51-.37.99,6.14,6.45,8.89,7.19,2.72,0,7.66-.83,10.88-1.37,1.27-.21,2.27-.38,2.77-.44.36,0,.89.15,1.59.36.87.26,1.98.59,3.29.76.85.11,1.77.14,2.77.04,2.94-.61,4.37-2.52,5.68-4.26.9-1.19,1.73-2.31,2.96-2.88.73-.34,1.56-.64,2.4-.85,1.79-3.38,2.89-7.15,3.12-11.15.02-.48.03-.97.03-1.46,0-.91-.04-1.82-.12-2.72-.65-6.75-3.8-12.8-8.54-17.28Z"/>
    <path class="cls-2" d="M31.15,39.55c.08-.26-1.1-3.86-1.61-5.49-.07-.23-.06-.33.14-.49.23-.18,4.28-3.22,4.33-3.48-1.81,0-3.59,0-5.38,0-.21,0-.35,0-.44-.3-.5-1.68-1.65-5.34-1.82-5.44-.56,1.85-1.12,3.68-1.67,5.52-.06.2-.19.21-.35.21-1.22-.02-4.84.06-5.53.06.12.12,3.01,2.34,4.42,3.41.17.13.27.23.18.51-.45,1.44-1.56,5.05-1.56,5.43.1.03,2.81-2.07,4.12-3.07.53-.4.52-.41,1.05,0,.04.03,2.76,2.09,4.1,3.11h0Z"/>
  </g>
</svg>