<?xml version="1.0" encoding="UTF-8"?>
<svg xmlns="http://www.w3.org/2000/svg" xmlns:xlink="http://www.w3.org/1999/xlink" viewBox="0 0 56 56">
  <defs>
    <style>
      .cls-1 {
        fill: url(#linear-gradient);
      }

      .cls-1, .cls-2, .cls-3, .cls-4, .cls-5 {
        stroke-width: 0px;
      }

      .cls-2 {
        fill: #b91f39;
      }

      .cls-3 {
        fill: #f7f7f7;
      }

      .cls-4 {
        fill: #2f85b0;
      }

      .cls-5 {
        fill: #326130;
      }
    </style>
    <linearGradient id="linear-gradient" x1="35.23" y1="27.37" x2="35.23" y2="39.19" gradientUnits="userSpaceOnUse">
      <stop offset="0" stop-color="#8b5a24"/>
      <stop offset="1" stop-color="#441a12"/>
    </linearGradient>
  </defs>
  <g id="_F7F7F7_Hover" data-name="#F7F7F7 Hover">
    <rect class="cls-3" width="56" height="56"/>
  </g>
  <g id="Logo">
    <g id="Logo-2" data-name="Logo">
      <path class="cls-4" d="M31.77,25.88c.16-.03.3-.03.38-.03.76,0,1.58.28,2.35.59.1.04.2.08.29.12.04.02.09.04.13.05l1.62-4.19,1.55,4c.07,0,.13,0,.19-.01h0s0,0,0,0h.03c.15,0,.3-.01.45-.01.05,0,.09,0,.14,0,.02,0,.03,0,.05,0h.03c1.05.02,2.04.14,2.97.35l-3.53-9.14h-3.84l-3.23,8.35c.14-.04.27-.08.4-.1Z"/>
      <path class="cls-2" d="M22.85,27.07c.09-.06,1.68-1.17,1.7-1.26h-2.11c-.08,0-.14,0-.17-.11h0c-.19-.6-.65-1.93-.71-1.97-.22.67-.44,1.33-.65,2-.02.07-.07.08-.14.08-.48,0-1.9.02-2.17.02.05.04,1.18.85,1.73,1.24.07.05.1.08.07.18-.18.52-.61,1.83-.61,1.97.04.01,1.1-.75,1.62-1.11q.21-.15.41,0s1.08.76,1.61,1.13c.03-.1-.43-1.4-.63-1.99-.03-.09-.02-.12.06-.18Z"/>
      <path class="cls-1" d="M46.96,33.79h-.02c-.03-.61-.54-1.88-.98-2.29.19-.57-.07-.86-.23-1.05-.09-.11-.39-.19-.53-.24-.48-.73-1.51-1.39-2.94-1.81-.93-.27-2.04-.45-3.28-.48-.06,0-.12,0-.18,0-.12,0-.26,0-.41.01-1.14.06-2.89.32-3.3.32h-.03c-.17,0-.6-.19-1.09-.39-.59-.23-1.28-.48-1.79-.48-.05,0-.11,0-.16,0-.48.06-1.61.78-2.03,1.01-.29.16-1.21.55-1.48.72-.06.02-.18.02-.24.04-.66.22-1.13.98-1.33,1.11-.02-.08-.27-.43-.62-.43-.04,0-.08,0-.12.02-.43.18-.4.49-.4.65-.08-.03-.21-.19-.44-.19-.08,0-.18.02-.29.07-.47.25-.22.67-.33.81-.17.23-.72.78-.93,1.16-.09.16,0,.57-.06.73-.18.45-1.18,1.25-1.27,1.43-.03.08.24.35.56.61.3.24.65.46.87.52.61,0,1.91-.25,2.2-.28h0c.08,0,.23.05.43.11.17.04.37.09.6.09.06,0,.13,0,.19,0,.3-.06.5-.2.66-.36.27-.27.43-.62.73-.76.24-.11.54-.19.8-.19.13,0,.25.02.35.06-.49.88-.38,2.05-.56,2.22-.19.19-.34.38-.46.56-.42.65-.48,1.23-.68,1.37-.06.04-.13.05-.21.05-.23,0-.54-.11-.76-.11-.05,0-.1,0-.14.02-.26.1-.87.66-.65.79.07,0,1.07,0,2.12,0h.91s.59-.51.61-.51h1.48c.14-.02.12-.24.77-.57.72-.28.38-1.68,1.31-2.75,0,0,.28-.26.35-.26.32,0,.86.58,2.81.58s2.42-.67,2.69-.67c.13,0,.4.2.4.27-.87,1.48,1.32,3.14,1.14,3.24,0,0-.01,0-.02,0-.07,0-.29-.12-.6-.12-.13,0-.27.02-.43.07-.35.12-.64.56-.36.7.07,0,.94,0,1.81,0,.48,0,.96,0,1.31,0,.11-.01.1-.22.1-.43,0-.13,0-.26.02-.33.09-.12.17-.54.41-.83.23-.25.41-.44.59-.44.08,0,.15.03.24.11.41.23,1.4.35,1.96.55.23.09.4.18.41.3,0,.07-.07.09-.14.09-.03,0-.07,0-.11,0-.14-.02-.31-.06-.49-.06-.09,0-.18.01-.26.04-.26.1-.51.37-.58.57-.04.11-.02.19.08.22h2.33c.27,0,.17-.54.76-1.72.09-.33-.75-.79-.87-1.43-.08-.41-.16-1.24-.17-2.04Z"/>
      <g>
        <path class="cls-4" d="M19.29,39.18c2.37,0,4.16-.47,5.74-1.33l.34-.86c-.56.09-1.08.15-1.48.15h-.19l-.18-.05c-.41-.1-.89-.37-1.44-.8-.21-.16-.54-.43-.8-.79-.59.14-1.23.21-1.93.21-4.59,0-7.79-3.19-7.79-7.75,0-4.31,3.38-7.69,7.7-7.69,2.42,0,4.56.96,6.55,2.94l1.4-3.56c-2.19-1.83-4.96-2.85-7.86-2.85-3.05,0-5.88,1.08-7.98,3.05-2.18,2.05-3.38,4.92-3.38,8.1,0,6.6,4.64,11.22,11.29,11.22Z"/>
        <path class="cls-5" d="M19.29,39.18c2.37,0,4.16-.47,5.74-1.33l.34-.86c-.56.09-1.08.15-1.48.15h-.19l-.18-.05c-.41-.1-.89-.37-1.44-.8-.21-.16-.54-.43-.8-.79-.59.14-1.23.21-1.93.21-3.12,0-5.61-1.48-6.87-3.86h-3.89c1.45,4.46,5.45,7.33,10.7,7.33Z"/>
      </g>
    </g>
  </g>
</svg>