<svg width="464" height="464" viewBox="0 0 464 464" fill="none" xmlns="http://www.w3.org/2000/svg">
<g clip-path="url(#clip0_114_2223)">
<path d="M393.479 393.477C482.909 304.047 482.909 159.053 393.479 69.6225C304.049 -19.8075 159.054 -19.8075 69.6237 69.6225C-19.8063 159.053 -19.8063 304.047 69.6237 393.477C159.054 482.907 304.049 482.907 393.479 393.477Z" fill="white" stroke="#354092" stroke-width="5.1"/>
<path d="M351.759 351.766C418.16 285.366 418.16 177.709 351.759 111.308C285.359 44.9068 177.701 44.9068 111.301 111.308C44.8998 177.709 44.8998 285.366 111.301 351.766C177.701 418.167 285.359 418.167 351.759 351.766Z" fill="white" stroke="#354092" stroke-width="3.19"/>
<path d="M72.3 215.57L72.78 210.08L75.71 214.79L81.12 213.54L77.49 217.66L80.34 222.35L75.23 220.15L71.52 224.32L72 218.85L67.02 216.74L72.29 215.57H72.3Z" fill="#354092"/>
<path d="M74.62 199.94L75.64 194.53L78.09 199.51L83.6 198.8L79.58 202.54L81.95 207.48L77.09 204.79L72.99 208.57L74.01 203.18L69.26 200.59L74.62 199.95V199.94Z" fill="#354092"/>
<path d="M78.4901 184.61L80.0501 179.33L81.9901 184.53L87.5401 184.37L83.1701 187.69L85.0401 192.85L80.4701 189.69L76.0101 193.04L77.5601 187.77L73.0901 184.72L78.4801 184.61H78.4901Z" fill="#354092"/>
<path d="M83.86 169.74L85.93 164.64L87.34 170L92.88 170.39L88.2 173.26L89.55 178.58L85.32 174.98L80.55 177.87L82.62 172.79L78.48 169.31L83.86 169.74Z" fill="#354092"/>
<path d="M90.6801 155.48L93.2501 150.61L94.1201 156.09L99.5901 157.03L94.6501 159.42L95.4601 164.84L91.6001 160.84L86.5701 163.25L89.1301 158.39L85.3601 154.52L90.6701 155.48H90.6801Z" fill="#354092"/>
<path d="M98.8699 141.96L101.91 137.37L102.24 142.91L107.59 144.39L102.44 146.28L102.71 151.76L99.2699 147.4L94.0299 149.3L97.0599 144.72L93.6899 140.49L98.8799 141.97L98.8699 141.96Z" fill="#354092"/>
<path d="M108.36 129.32L111.84 125.05L111.62 130.59L116.8 132.59L111.49 133.97L111.22 139.45L108.22 134.77L102.81 136.14L106.27 131.88L103.33 127.34L108.35 129.33L108.36 129.32Z" fill="#354092"/>
<path d="M119.04 117.68L122.92 113.77L122.16 119.26L127.12 121.75L121.7 122.6L120.9 128.03L118.38 123.08L112.87 123.91L116.74 120.01L114.26 115.21L119.06 117.68H119.04Z" fill="#354092"/>
<path d="M130.82 107.14L135.06 103.63L133.76 109.02L138.45 111.99L132.97 112.3L131.64 117.62L129.62 112.44L124.05 112.73L128.28 109.23L126.28 104.21L130.81 107.14H130.82Z" fill="#354092"/>
<path d="M143.57 97.8101L148.14 94.7301L146.32 99.9701L150.7 103.39L145.22 103.16L143.37 108.32L141.87 102.97L136.3 102.71L140.85 99.6401L139.36 94.4401L143.58 97.8001L143.57 97.8101Z" fill="#354092"/>
<path d="M157.18 89.78L162.03 87.17L159.7 92.2L163.72 96.03L158.29 95.26L155.94 100.22L154.97 94.75L149.45 93.94L154.28 91.34L153.31 86.02L157.18 89.78Z" fill="#354092"/>
<path d="M171.52 83.14L176.61 81.02L173.79 85.8L177.41 90.01L172.08 88.71L169.25 93.41L168.83 87.87L163.42 86.52L168.49 84.41L168.05 79.02L171.53 83.14H171.52Z" fill="#354092"/>
<path d="M186.46 77.96L191.73 76.36L188.45 80.83L191.63 85.38L186.46 83.55L183.18 87.94L183.31 82.38L178.06 80.5L183.31 78.91L183.41 73.5L186.46 77.95V77.96Z" fill="#354092"/>
<path d="M201.83 74.28L207.23 73.21L203.52 77.33L206.23 82.17L201.27 79.84L197.57 83.89L198.25 78.37L193.21 75.97L198.59 74.91L199.22 69.54L201.81 74.27L201.83 74.28Z" fill="#354092"/>
<path d="M217.49 72.1501L222.97 71.6201L218.87 75.3601L221.09 80.4501L216.38 77.6401L212.29 81.3001L213.52 75.8801L208.75 73.0001L214.21 72.4701L215.37 67.1901L217.48 72.1501H217.49Z" fill="#354092"/>
<path d="M233.29 71.57H238.8L234.36 74.9L236.07 80.18L231.66 76.92L227.24 80.16L228.99 74.88L224.52 71.54H230.01L231.68 66.41L233.3 71.56L233.29 71.57Z" fill="#354092"/>
<path d="M249.06 72.53L254.54 73.08L249.79 75.95L250.98 81.37L246.91 77.7L242.19 80.5L244.45 75.42L240.33 71.66L245.79 72.21L247.96 67.26L249.07 72.54L249.06 72.53Z" fill="#354092"/>
<path d="M264.67 75.03L270.07 76.12L265.06 78.51L265.71 84.02L262.02 79.96L257.05 82.28L259.8 77.45L256.07 73.3L261.45 74.38L264.1 69.66L264.68 75.02L264.67 75.03Z" fill="#354092"/>
<path d="M279.95 79.07L285.21 80.69L279.99 82.57L280.08 88.12L276.81 83.71L271.63 85.52L274.84 80.99L271.54 76.49L276.79 78.1L279.89 73.67L279.93 79.07H279.95Z" fill="#354092"/>
<path d="M294.76 84.62L299.84 86.75L294.46 88.1L294 93.63L291.19 88.92L285.86 90.21L289.51 86.02L286.67 81.22L291.73 83.35L295.26 79.25L294.77 84.62H294.76Z" fill="#354092"/>
<path d="M308.94 91.61L313.78 94.24L308.29 95.05L307.29 100.51L304.96 95.55L299.53 96.3L303.58 92.49L301.23 87.43L306.05 90.05L309.97 86.32L308.95 91.62L308.94 91.61Z" fill="#354092"/>
<path d="M322.35 99.96L326.91 103.05L321.37 103.31L319.83 108.64L318 103.47L312.52 103.68L316.92 100.29L315.08 95.02L319.62 98.1L323.88 94.78L322.34 99.95L322.35 99.96Z" fill="#354092"/>
<path d="M334.88 109.59L339.11 113.12L333.57 112.84L331.51 118L330.2 112.67L324.72 112.34L329.44 109.4L328.13 103.98L332.35 107.49L336.92 104.6L334.87 109.59H334.88Z" fill="#354092"/>
<path d="M346.4 120.41L350.27 124.33L344.78 123.5L342.23 128.43L341.44 123L336.02 122.13L341 119.67L340.23 114.15L344.08 118.06L348.91 115.64L346.39 120.41H346.4Z" fill="#354092"/>
<path d="M356.8 132.31L360.26 136.59L354.88 135.23L351.86 139.89L351.61 134.41L346.3 133.02L351.5 131.06L351.28 125.49L354.73 129.76L359.78 127.82L356.8 132.32V132.31Z" fill="#354092"/>
<path d="M365.98 145.17L369 149.77L363.78 147.89L360.31 152.23L360.6 146.75L355.46 144.84L360.83 143.4L361.16 137.83L364.17 142.42L369.38 140.99L365.97 145.17H365.98Z" fill="#354092"/>
<path d="M373.85 158.87L376.4 163.75L371.39 161.36L367.51 165.33L368.34 159.91L363.41 157.5L368.89 156.6L369.76 151.09L372.3 155.95L377.63 155.04L373.82 158.86L373.85 158.87Z" fill="#354092"/>
<path d="M380.32 173.29L382.38 178.4L377.64 175.53L373.39 179.1L374.76 173.79L370.09 170.91L375.64 170.55L377.06 165.16L379.11 170.25L384.5 169.87L380.33 173.3L380.32 173.29Z" fill="#354092"/>
<path d="M385.33 188.28L386.87 193.57L382.44 190.24L377.85 193.37L379.74 188.22L375.38 184.89L380.93 185.09L382.88 179.86L384.41 185.13L389.82 185.29L385.33 188.29V188.28Z" fill="#354092"/>
<path d="M388.82 203.7L389.82 209.12L385.74 205.36L380.86 208.02L383.25 203.08L379.25 199.33L384.76 200.08L387.21 195.07L388.21 200.47L393.57 201.17L388.81 203.71L388.82 203.7Z" fill="#354092"/>
<path d="M390.77 219.38L391.23 224.87L387.54 220.73L382.43 222.89L385.3 218.21L381.69 214.08L387.1 215.37L390.04 210.63L390.5 216.1L395.77 217.32L390.78 219.37L390.77 219.38Z" fill="#354092"/>
<path d="M72.3101 361.2C68.8701 365.51 68.3201 370.24 70.8801 373.16C72.6701 375.2 75.6401 375.43 77.7201 373.61C78.9201 372.56 79.2401 371.31 79.3101 370.21C79.5301 366.86 77.3201 361.7 77.5901 357.6C77.7801 354.66 79.1401 352.24 81.2501 350.39C85.5501 346.62 91.3401 346.82 94.8501 350.83C97.1501 353.45 97.4801 356.77 98.3801 357.79C98.9601 358.45 99.8101 358.47 100.99 357.82L101.53 358.44L92.3201 366.53L91.7401 365.87C95.7901 361.22 96.6701 355.62 93.7901 352.34C91.9001 350.19 88.7801 350.16 86.3801 352.27C84.9201 353.55 84.5601 354.45 84.4401 356.16C84.2501 359.03 86.1101 364.75 85.8801 368.24C85.6801 371.32 84.6201 373.34 82.5101 375.2C78.4301 378.78 73.3201 378.69 70.0601 374.97C67.7601 372.35 67.9501 369.41 67.0201 368.35C66.4101 367.66 65.6901 367.71 64.4001 368.52L63.8201 367.86L71.7101 360.55L72.2901 361.21L72.3101 361.2Z" fill="#354092"/>
<path d="M65.61 329.57L74.92 325.17L87.9 344.24L87.18 344.73C85.83 342.48 84.52 342.38 82.48 343.77L62.17 357.59C60.21 358.93 59.59 359.99 61.3 362.34L60.58 362.83L48.01 344.37L55.82 339.05L56.31 339.77C53.72 342 50.88 345.4 54.94 351.37L56.36 353.45L67.58 345.82C65.39 342.86 62.43 342.47 58.1 345.41L57.61 344.69L71.51 335.23L72 335.95C67.79 338.81 67 341.7 69.06 344.81L77.47 339.09C80.19 337.24 80.44 336.48 79.11 334.52C75.59 329.35 72.32 328.59 66.1 330.3L65.61 329.58V329.57Z" fill="#354092"/>
<path d="M59.2701 315.91L62.4501 322.28L50.5701 324.19L50.5301 324.1L59.2701 315.9V315.91ZM62.1501 302.03C62.6301 303.42 62.2101 304.33 59.1801 307.14L37.8601 327.14L38.2501 327.92L66.8801 323.34C71.2401 322.63 72.1701 322.76 73.1801 324.15L73.9601 323.76L70.9101 317.65L70.1301 318.04C70.9501 319.58 70.6901 320.47 69.7801 320.92C69.4301 321.09 69.0401 321.18 67.7001 321.42L64.3201 322.02L60.6501 314.65L63.1701 312.31C63.8401 311.7 64.6701 311.08 65.1001 310.86C65.8801 310.47 66.5301 310.8 67.3501 312.44L68.1301 312.05L62.9401 301.64L62.1601 302.03H62.1501Z" fill="#354092"/>
<path d="M44.36 282.14L55.49 279.65L62.97 301.72L62.14 302C61.14 299.06 60.07 298.76 57.68 299.57L34.32 307.48C32.25 308.18 31.33 309.21 32.49 312.04L31.66 312.32L27.03 298.65L27.86 298.37C28.76 301.49 29.84 301.95 32.18 301.15L55.17 293.36C57.37 292.61 57.71 291.79 57.12 290.04C55.22 284.44 52.96 282.45 44.64 282.96L44.36 282.13V282.14Z" fill="#354092"/>
<path d="M259.2 435.8C259.41 439.6 259.6 443.39 259.8 447.19C250.64 448.56 241.34 449.29 231.99 449.37C231.98 449.08 231.97 448.79 231.96 448.5C235.68 448.46 236.37 447.48 236.22 444.97C235.74 436.75 235.37 428.53 235.1 420.32C235.03 418.13 234.31 416.97 231.22 417.19C231.22 416.9 231.22 416.61 231.22 416.32C236.08 416.29 240.91 416.06 245.7 415.61C245.73 415.9 245.75 416.19 245.78 416.48C242.52 416.62 241.8 417.52 241.97 419.99C242.56 428.06 243.24 436.13 244.03 444.19C244.25 446.51 245.12 447.04 247.3 446.85C254.29 446.22 257.17 444.23 258.24 435.95C258.56 435.9 258.89 435.85 259.21 435.8H259.2Z" fill="#354092"/>
<path d="M24.9101 167.68L35.8001 170.45L35.5801 171.3C29.6501 171.04 25.3101 173.34 24.3101 177.28C23.0001 182.45 28.4701 185.49 39.0401 188.17C48.9901 190.7 53.1701 189.41 54.2501 185.19C54.5601 183.97 54.5101 182.81 54.0501 182.04L46.4001 180.09C44.2401 179.54 42.9601 180.06 42.4601 182.59L41.6101 182.37L44.7701 169.93L45.6201 170.14C45.1501 172.37 45.8801 173.06 50.2501 174.17L55.7001 175.55C56.6501 178.49 56.7601 182.57 55.9201 185.9C54.4801 191.58 49.2301 198.45 36.8301 195.29C25.9401 192.52 20.6801 184.29 22.4601 177.29C23.4901 173.25 26.1401 171.88 26.4501 170.65C26.6501 169.85 26.0101 169.04 24.7001 168.5L24.9101 167.65V167.68Z" fill="#354092"/>
<path d="M50.7799 147.98C59.3499 151.6 64.9299 155.07 62.7299 160.29C60.4499 165.69 53.3899 163.6 45.6699 160.34C36.6999 156.55 32.1999 153.01 34.2199 148.24C36.3499 143.2 42.2699 144.38 50.7899 147.99L50.7799 147.98ZM54.0799 141.27C42.1599 136.23 35.0199 141.68 32.5299 147.57C30.4699 152.43 30.2099 161.9 43.0599 167.33C55.4199 172.55 62.0999 166.33 64.3899 160.93C66.5799 155.75 66.3999 146.47 54.0799 141.27Z" fill="#354092"/>
<path d="M74.88 140.41L44.95 132.91C42.41 132.26 41.48 132.5 40.49 133.6L39.74 133.16L45.62 123.18L46.37 123.62C45.42 125.14 45.43 125.88 46.31 126.4C46.73 126.65 47.24 126.83 48.52 127.14L65.41 131.4L65.46 131.32L54.82 119.6C53.43 118.05 52.65 117.37 51.94 116.95C51.06 116.43 50.38 116.82 49.57 118.2L48.82 117.76L52.26 111.91L53.01 112.35C52.51 113.68 52.58 114.51 54.92 117.13L75.33 139.66L74.89 140.41H74.88Z" fill="#354092"/>
<path d="M86.43 104.77L93.52 112.24L79.46 130.52L78.77 129.99C80.48 128 80.18 126.73 78.22 125.22L58.75 110.24C56.87 108.79 55.66 108.54 53.96 110.9L53.27 110.37L66.89 92.66L74.38 98.42L73.85 99.11C70.93 97.35 66.81 95.71 62.41 101.43L60.87 103.43L71.62 111.7C73.75 108.69 73.19 105.76 69.05 102.57L69.58 101.88L82.91 112.13L82.38 112.82C78.35 109.72 75.36 109.87 73.05 112.79L81.12 118.99C83.73 121 84.53 121 85.97 119.12C89.78 114.17 89.48 110.82 85.91 105.45L86.44 104.76L86.43 104.77Z" fill="#354092"/>
<path d="M79.79 81.5L80.2 81.09C83.59 77.76 86.09 77.89 89.65 81.51C93.49 85.41 93.57 88.12 90.7 90.94L89.87 91.76L79.78 81.5H79.79ZM113.32 91.14C112.18 92.26 111.36 92.25 108.15 91.13L96.4 86.92C98.35 83.58 97.8 79.84 94.84 76.83C91.48 73.41 86.59 72.31 80.78 78.01L71.52 87.11L72.13 87.73C73.79 85.96 75.09 86.25 76.69 87.87L94.05 105.53C95.61 107.12 95.84 108.39 94.08 110.05L94.69 110.67L104.05 101.47L103.44 100.85C101.71 102.55 100.68 102.75 98.78 100.81L90.9 92.79L91.76 91.94L107.92 97.66L113.93 91.75L113.32 91.13V91.14Z" fill="#354092"/>
<path d="M132.24 79.05L102.02 68.45L101.94 68.51L114.76 86.03C116.16 87.95 117.46 88.32 119.38 86.85L119.9 87.55L113.18 92.47L112.66 91.77C114.75 90.36 114.83 89.16 113.43 87.24L98.8599 67.34L95.6199 66.35C95.0599 66.16 94.4099 66.34 94.1699 66.51L93.6499 65.81L100.06 61.12L123.8 69.44L123.88 69.38L114.06 55.97C112.74 54.17 111.63 53.72 109.68 55.15L109.16 54.45L115.45 49.84L115.97 50.54C114.37 51.71 114.04 52.74 115.44 54.65L132.92 78.54L132.22 79.06L132.24 79.05Z" fill="#354092"/>
<path d="M145.77 51.81C150.06 60.06 152.16 66.29 147.13 68.91C141.93 71.61 137.82 65.5 133.95 58.07C129.46 49.43 128.24 43.84 132.84 41.44C137.7 38.91 141.5 43.6 145.77 51.81ZM152.59 48.76C146.62 37.28 137.64 36.93 131.97 39.88C127.28 42.32 121.05 49.44 127.49 61.82C133.68 73.73 142.8 73.19 148 70.49C152.99 67.9 158.76 60.63 152.59 48.77V48.76Z" fill="#354092"/>
<path d="M160.17 30.38L160.72 30.19C165.22 28.67 167.41 29.87 169.05 34.69C170.81 39.88 169.7 42.35 165.89 43.64L164.79 44.01L160.17 30.38ZM186.16 53.65C184.65 54.16 183.91 53.8 181.51 51.39L172.76 42.48C175.97 40.32 177.1 36.71 175.75 32.72C174.21 28.18 170.29 25.05 162.58 27.67L150.28 31.84L150.56 32.67C152.82 31.8 153.87 32.62 154.6 34.78L162.54 58.23C163.25 60.34 162.91 61.58 160.6 62.32L160.88 63.15L173.32 58.94L173.04 58.11C170.75 58.89 169.73 58.62 168.86 56.05L165.25 45.4L166.4 45.01L178.46 57.19L186.44 54.49L186.16 53.66V53.65Z" fill="#354092"/>
<path d="M286.15 33.55C286.45 28.05 284.15 23.87 280.38 22.98C277.74 22.36 275.19 23.9 274.55 26.58C274.18 28.14 274.65 29.34 275.22 30.27C276.99 33.13 281.77 36.05 283.93 39.54C285.48 42.05 285.77 44.8 285.13 47.54C283.82 53.1 278.98 56.29 273.79 55.07C270.4 54.27 268.2 51.76 266.88 51.45C266.03 51.25 265.32 51.73 264.74 52.94L263.94 52.75L266.76 40.82L267.61 41.02C267.01 47.15 269.54 52.23 273.79 53.23C276.57 53.89 279.13 52.1 279.87 48.99C280.32 47.1 280.09 46.15 279.19 44.7C277.68 42.25 272.85 38.67 271.01 35.7C269.39 33.08 269.08 30.81 269.72 28.08C270.97 22.8 275.18 19.91 279.99 21.05C283.38 21.85 284.93 24.36 286.3 24.68C287.2 24.89 287.75 24.43 288.33 23.02L289.18 23.22L286.99 33.76L286.14 33.56L286.15 33.55Z" fill="#354092"/>
<path d="M291.76 33.65L294.78 25.47L317.23 33.75L314.21 41.93L313.39 41.63C314.66 36.52 313.61 34.32 308.52 32.45L299.18 57.77C298.33 60.09 298.55 61.31 301.42 62.21L301.12 63.03L288.03 58.2L288.33 57.38C290.9 58.53 292.06 57.77 292.86 55.59L302.25 30.13C297.52 28.39 295.11 28.63 292.58 33.95L291.76 33.65Z" fill="#354092"/>
<path d="M321.11 61.92L314.79 58.63L323.28 50.1L323.36 50.14L321.11 61.91V61.92ZM326.94 74.84C325.74 74 325.54 73.02 326.34 68.96L331.84 40.25L331.07 39.85L310.6 60.38C307.49 63.51 306.66 63.96 305.02 63.43L304.62 64.2L310.68 67.36L311.08 66.59C309.51 65.83 309.2 64.96 309.67 64.05C309.85 63.71 310.11 63.41 311.06 62.43L313.44 59.96L320.74 63.77L320.08 67.14C319.89 68.03 319.59 69.02 319.37 69.45C318.97 70.22 318.25 70.34 316.62 69.49L316.22 70.26L326.53 75.63L326.93 74.86L326.94 74.84Z" fill="#354092"/>
<path d="M339.28 54.99L344.25 47.82L363.92 61.46L358.95 68.63L358.23 68.13C360.73 63.5 360.27 61.11 355.81 58.02L340.43 80.19C339.02 82.22 338.93 83.46 341.48 85.05L340.98 85.77L329.52 77.82L330.02 77.1C332.22 78.86 333.53 78.41 334.86 76.5L350.33 54.21C346.19 51.34 343.79 50.97 340.01 55.48L339.29 54.98L339.28 54.99Z" fill="#354092"/>
<path d="M369.96 97.48L361.93 103.93L344.88 88.41L345.47 87.77C347.31 89.64 348.6 89.44 350.26 87.61L366.8 69.44C368.4 67.68 368.75 66.5 366.54 64.62L367.13 63.98L383.65 79.02L377.29 86.01L376.64 85.42C378.64 82.65 380.61 78.68 375.27 73.82L373.41 72.12L364.28 82.15C367.1 84.52 370.07 84.21 373.59 80.34L374.24 80.93L362.92 93.36L362.28 92.77C365.7 89.01 365.8 86.02 363.08 83.47L356.23 90.99C354.01 93.43 353.95 94.22 355.7 95.82C360.32 100.03 363.68 100.01 369.33 96.89L369.97 97.48H369.96Z" fill="#354092"/>
<path d="M394.77 117.48C387.33 123.07 381.53 126.15 378.13 121.62C374.61 116.93 379.96 111.88 386.67 106.85C394.46 101 399.77 98.88 402.89 103.03C406.18 107.41 402.18 111.93 394.78 117.48H394.77ZM398.9 123.71C409.24 115.94 408.12 107.03 404.28 101.91C401.11 97.69 393.06 92.7 381.91 101.08C371.18 109.14 373.2 118.04 376.72 122.73C380.1 127.22 388.21 131.73 398.9 123.7V123.71Z" fill="#354092"/>
<path d="M416.84 140.61C421.41 137.36 421.75 134.46 419.07 129.63L417.73 127.21L405.78 133.83C408.09 137.7 410.76 138.44 414.96 136.11L415.41 136.92L401.34 144.71L400.89 143.9C405.3 141.46 406.19 138.37 404.21 134.7L394.21 140.24C392.09 141.41 391.44 142.44 392.66 144.64L391.9 145.06L385.73 133.91L386.49 133.49C387.64 135.46 388.73 135.63 390.93 134.41L412.55 122.45C414.37 121.44 414.93 120.25 413.88 118.34L414.64 117.92L425.2 137L417.27 141.39L416.85 140.63L416.84 140.61Z" fill="#354092"/>
<path d="M428.71 174.63C433.44 172.31 435.94 168 434.68 164.39C434.12 162.79 432.96 161.66 431.48 160.94C428.46 159.48 423.9 159.94 417.77 162.08C411.09 164.41 407.64 166.74 406.27 169.58C405.61 170.94 405.39 172.5 405.96 174.15C407.14 177.54 409.76 178.88 414.35 180.56L412.02 181.37C407.95 180.28 404.84 177.41 403.49 173.52C400.86 165.97 405.43 158.48 414.67 155.26C424.32 151.9 433.61 154.97 436.17 162.34C437.62 166.5 436.01 168.81 436.6 170.5C436.84 171.19 437.53 171.25 439.18 170.99L439.47 171.81L428.99 175.46L428.7 174.64L428.71 174.63Z" fill="#354092"/>
<path d="M419.67 194.08L418.24 187.1L430.21 188.31L430.23 188.41L419.67 194.08ZM413.32 206.75C413.22 205.29 413.85 204.51 417.51 202.58L443.26 188.75L443.09 187.9L414.25 184.95C409.86 184.51 408.99 184.15 408.37 182.54L407.52 182.71L408.89 189.4L409.74 189.23C409.34 187.53 409.82 186.74 410.82 186.54C411.2 186.46 411.6 186.48 412.96 186.6L416.38 186.89L418.03 194.96L415 196.57C414.19 196.98 413.24 197.38 412.76 197.47C411.91 197.65 411.36 197.16 410.99 195.36L410.14 195.54L412.47 206.93L413.33 206.76L413.32 206.75Z" fill="#354092"/>
<path d="M425.4 230.05L414.01 229.63L412.39 206.38L413.26 206.32C413.47 209.41 414.44 209.98 416.95 209.8L441.55 208.09C443.72 207.94 444.89 207.18 444.48 204.15L445.35 204.09L446.35 218.49L445.48 218.55C445.4 215.3 444.48 214.59 442.01 214.76L417.8 216.45C415.48 216.61 414.95 217.33 415.08 219.16C415.49 225.06 417.17 227.56 425.34 229.18L425.4 230.05Z" fill="#354092"/>
<path d="M446.45 244.37L445.58 244.34C445.73 242.45 444.9 241.31 442.57 241.24L417.73 240.5C415.41 240.43 414.37 241.08 414.3 243.4L413.43 243.37L413.81 230.78L414.68 230.81C414.57 232.84 415.56 233.74 417.89 233.81L442.59 234.55C444.38 234.6 445.94 234.26 445.97 231.74L446.84 231.77L446.46 244.36L446.45 244.37Z" fill="#354092"/>
<path d="M434.49 269.15C440.1 269.27 442.09 267.14 442.83 261.67L443.2 258.93L429.66 257.11C429.2 261.59 430.91 263.78 435.67 264.42L435.55 265.33L419.61 263.19L419.73 262.28C424.73 262.95 427.28 261 427.89 256.88L416.56 255.36C414.16 255.04 413.02 255.47 412.69 257.97L411.83 257.85L413.53 245.22L414.39 245.34C414.14 247.6 414.91 248.39 417.41 248.73L441.9 252.02C443.96 252.3 445.12 251.67 445.42 249.51L446.28 249.63L443.37 271.24L434.39 270.03L434.51 269.17L434.49 269.15Z" fill="#354092"/>
<path d="M421.51 291.39C412.55 288.9 406.56 286.18 408.08 280.72C409.65 275.07 416.92 276.24 424.99 278.48C434.37 281.09 439.29 284.01 437.91 289.01C436.44 294.28 430.42 293.87 421.51 291.39ZM419.09 298.46C431.55 301.92 437.94 295.6 439.65 289.44C441.06 284.35 440.11 274.93 426.67 271.2C413.74 267.61 407.91 274.63 406.34 280.28C404.84 285.7 406.21 294.88 419.09 298.46Z" fill="#354092"/>
<path d="M427.35 316.56L427.11 317.09C425.15 321.42 422.78 322.2 418.14 320.11C413.15 317.86 412.1 315.36 413.76 311.7L414.24 310.64L427.35 316.57V316.56ZM392.6 319.68C393.26 318.22 394.03 317.93 397.43 317.82L409.91 317.5C409.3 321.32 411.16 324.61 415.01 326.34C419.38 328.32 424.34 327.58 427.69 320.16L433.04 308.33L432.25 307.97C431.34 310.22 430.03 310.42 427.95 309.48L405.39 299.29C403.36 298.37 402.69 297.27 403.73 295.08L402.94 294.72L397.53 306.68L398.32 307.04C399.32 304.83 400.21 304.28 402.68 305.39L412.92 310.02L412.42 311.12L395.29 311.62L391.82 319.3L392.61 319.66L392.6 319.68Z" fill="#354092"/>
<path d="M379.31 337.77L411.32 336.78L411.37 336.7L393.1 324.98C391.1 323.7 389.76 323.81 388.49 325.88L387.76 325.41L392.26 318.4L392.99 318.87C391.55 320.94 391.91 322.09 393.9 323.37L414.66 336.69L418.04 336.44C418.63 336.42 419.17 336.02 419.33 335.77L420.06 336.24L415.77 342.93L390.62 343.72L390.57 343.8L404.56 352.77C406.44 353.97 407.63 353.99 408.94 351.95L409.67 352.42L405.46 358.98L404.73 358.51C405.8 356.84 405.74 355.76 403.75 354.48L378.83 338.49L379.3 337.76L379.31 337.77Z" fill="#354092"/>
<path d="M395.34 371.25L394.66 370.7C395.92 369.29 395.94 367.87 394.13 366.42L374.76 350.84C372.95 349.38 371.73 349.27 370.27 351.09L369.59 350.54L377.49 340.72L378.17 341.27C376.86 342.82 377.1 344.14 378.92 345.6L398.17 361.09C399.57 362.21 401.02 362.88 402.56 360.89L403.24 361.44L395.34 371.26V371.25Z" fill="#354092"/>
<path d="M367.33 366.98L372.33 361.91L377.99 372.52L377.92 372.59L367.33 366.98ZM353.27 368.77C354.43 367.87 355.42 367.97 359.07 369.93L384.9 383.61L385.51 382.99L371.89 357.4C369.8 353.51 369.63 352.59 370.61 351.17L369.99 350.56L365.2 355.43L365.82 356.04C367.01 354.76 367.93 354.72 368.66 355.44C368.94 355.71 369.14 356.05 369.8 357.25L371.47 360.25L365.69 366.12L362.66 364.5C361.87 364.06 361.01 363.48 360.66 363.15C360.04 362.54 360.14 361.82 361.43 360.51L360.81 359.9L352.65 368.18L353.27 368.79V368.77Z" fill="#354092"/>
<path d="M230.16 417.56C225.56 417.77 224.88 419.14 215.79 429.22C218.46 434.04 221.29 438.81 224.28 443.54C226.9 447.64 227.82 447.76 229.37 447.91C229.35 448.31 229.32 448.72 229.3 449.12C222.95 448.94 216.62 448.54 210.34 447.91C210.39 447.51 210.45 447.11 210.5 446.71C213.39 446.85 214.95 446.87 215.09 445.57C215.14 445.09 214.68 443.78 214.22 442.97C212.68 440.21 211.19 437.43 209.75 434.64C208.98 435.39 208.2 436.13 207.42 436.87C202.25 441.67 201.39 442.65 201.26 443.57C200.98 445.25 203.47 445.78 205.37 446.15C205.31 446.55 205.25 446.95 205.19 447.35C200.59 446.8 196.02 446.12 191.47 445.33C191.55 444.93 191.63 444.54 191.71 444.14C193.6 444.22 195.51 444.29 197.85 442.39C201.63 439.35 205.27 436.22 208.78 433.02C205.94 427.97 203.28 422.87 200.8 417.72C200.01 416.07 199.39 414.75 197.38 414.31C197.45 413.91 197.52 413.51 197.59 413.12C203.1 414.07 208.67 414.82 214.28 415.37C214.24 415.77 214.2 416.17 214.16 416.57C211.26 416.48 210.28 416.35 210.12 417.75C210.05 418.38 210.16 418.68 210.65 419.61C211.97 422.2 213.33 424.77 214.73 427.33C221.27 420.2 221.11 420.13 221.25 418.84C221.35 417.34 219.98 417.21 217.83 416.89C217.86 416.49 217.9 416.08 217.93 415.68C222 416.01 226.08 416.23 230.19 416.35C230.18 416.75 230.16 417.16 230.15 417.56H230.16Z" fill="#354092"/>
<path d="M384.31 275.39C386.43 283.49 385.82 296.5 370.3 298.08C378.64 294 377.19 285.18 364.84 285.79C352.48 286.4 352.94 287.21 346.05 287.55C341.05 287.8 331.3 290.55 316.8 285.8C305.3 282.03 286.92 280.63 273.41 285.95C259.39 291.48 234.1 290.62 216.93 285.99C200.19 281.48 180.25 283.83 173.75 292.75L165.36 269.91C179.91 258.75 204.71 257.25 222.38 264.28C233.04 268.52 251.79 268.31 259.03 264.67C273.5 257.41 297.25 260.12 310.91 264.86C321.43 268.51 335.54 269.79 348.02 266.79C381.02 258.88 384.3 275.37 384.3 275.37L384.31 275.39Z" fill="#354092"/>
<path d="M199.2 34.1C199.95 38.44 200 41.55 197.35 42.01C194.61 42.48 193.64 39.13 192.97 35.22C192.19 30.67 192.44 27.97 194.86 27.56C197.42 27.12 198.46 29.78 199.2 34.1ZM202.72 33.7C201.68 27.66 197.68 26.21 194.69 26.72C192.22 27.14 188.39 29.46 189.51 35.97C190.59 42.23 194.78 43.31 197.52 42.83C200.14 42.38 203.8 39.93 202.72 33.69V33.7Z" fill="#354092"/>
<path d="M213.61 28.97C213.04 26.38 211.84 25.69 209.24 25.96L207.94 26.1L208.61 32.54C210.73 32.25 211.54 31.22 211.31 28.96L211.74 28.91L212.53 36.49L212.1 36.54C211.85 34.17 210.67 33.2 208.7 33.39L209.26 38.78C209.38 39.92 209.7 40.39 210.89 40.27L210.93 40.68L204.93 41.3L204.89 40.89C205.96 40.76 206.24 40.31 206.11 39.12L204.9 27.48C204.8 26.5 204.38 26.03 203.35 26.14L203.31 25.73L213.58 24.66L214.02 28.93L213.61 28.97Z" fill="#354092"/>
<path d="M220.01 28.37L219.92 24.24L231.26 24L231.35 28.13H230.94C230.61 25.67 229.77 24.88 227.2 24.94L227.47 37.72C227.49 38.89 227.8 39.39 229.22 39.29V39.7L222.62 39.84V39.43C223.95 39.49 224.32 38.96 224.3 37.86L224.03 25.01C221.64 25.06 220.62 25.59 220.43 28.37H220.02H220.01Z" fill="#354092"/>
<path d="M233.06 24.39L233.08 23.98L239.22 24.27L239.2 24.68C238.1 24.6 237.69 25.04 237.64 26.08L237.39 31.28L242 31.5L242.24 26.41C242.29 25.36 242.09 24.79 240.83 24.76L240.85 24.35L246.97 24.64L246.95 25.05C245.96 24.98 245.47 25.32 245.41 26.47L244.85 38.14C244.8 39.24 245.02 39.8 246.24 39.86L246.22 40.27L240.1 39.98L240.12 39.57C241.31 39.67 241.63 39.11 241.69 37.99L241.95 32.49L237.34 32.27L237.07 37.84C237.01 39.08 237.43 39.44 238.48 39.49L238.46 39.9L232.32 39.61L232.34 39.2C233.44 39.28 233.85 38.86 233.9 37.78L234.46 25.95C234.51 24.99 234.19 24.4 233.04 24.39H233.06Z" fill="#354092"/>
<path d="M258.87 36.93L257.55 41.63L246.7 40.35L246.75 39.94C247.97 40.15 248.42 39.72 248.55 38.56L249.91 27C250.04 25.88 249.85 25.33 248.48 25.21L248.53 24.8L259.04 26.04L258.52 30.48L258.11 30.43C258.11 28.81 257.78 26.74 254.39 26.34L253.2 26.2L252.45 32.58C254.19 32.72 255.25 31.78 255.54 29.32L255.95 29.37L255.02 37.28L254.61 37.23C254.89 34.84 254.11 33.66 252.35 33.43L251.79 38.22C251.61 39.77 251.8 40.09 252.92 40.22C255.86 40.57 257.15 39.63 258.47 36.88L258.88 36.93H258.87Z" fill="#354092"/>
<path d="M34.68 266.14C39 265.28 42.11 265.15 42.64 267.79C43.18 270.51 39.86 271.57 35.96 272.35C31.44 273.25 28.73 273.06 28.25 270.65C27.74 268.11 30.38 267 34.68 266.14ZM34.19 262.63C28.18 263.83 26.83 267.86 27.42 270.83C27.91 273.28 30.32 277.06 36.8 275.77C43.04 274.53 44 270.31 43.46 267.59C42.94 264.98 40.4 261.39 34.19 262.62V262.63Z" fill="#354092"/>
<path d="M29.1899 251.87C26.6099 252.51 25.9599 253.73 26.2999 256.32L26.4699 257.62L32.8899 256.79C32.5499 254.68 31.4999 253.89 29.2399 254.18L29.1799 253.75L36.7399 252.77L36.7999 253.2C34.4299 253.51 33.4999 254.72 33.7299 256.68L39.0999 255.98C40.2399 255.83 40.6999 255.49 40.5499 254.31L40.9599 254.26L41.7399 260.25L41.3299 260.3C41.1699 259.23 40.7199 258.97 39.5299 259.12L27.9199 260.63C26.9399 260.76 26.4899 261.19 26.6199 262.21L26.2099 262.26L24.8799 252.02L29.1399 251.47L29.1899 251.88V251.87Z" fill="#354092"/>
<path d="M28.43 245.48L24.3 245.67L23.77 234.34L27.9 234.15L27.92 234.56C25.46 234.95 24.69 235.81 24.81 238.38L37.58 237.79C38.75 237.74 39.24 237.41 39.1 236L39.51 235.98L39.82 242.58L39.41 242.6C39.44 241.27 38.89 240.9 37.79 240.95L24.95 241.55C25.06 243.93 25.61 244.94 28.4 245.07L28.42 245.48H28.43Z" fill="#354092"/>
<path d="M24.12 232.45H23.71L23.85 226.29H24.26C24.21 227.4 24.66 227.8 25.69 227.83L30.9 227.95L31.01 223.34L25.92 223.22C24.86 223.2 24.31 223.41 24.3 224.68H23.89L24.03 218.55H24.44C24.39 219.55 24.75 220.04 25.9 220.06L37.58 220.33C38.68 220.36 39.24 220.12 39.27 218.9H39.68L39.54 225.04H39.13C39.2 223.84 38.64 223.53 37.51 223.5L32 223.37L31.89 227.98L37.47 228.11C38.71 228.14 39.06 227.71 39.09 226.65H39.5L39.36 232.81H38.95C39 231.7 38.57 231.3 37.49 231.28L25.65 231.01C24.69 230.99 24.1 231.32 24.12 232.47V232.45Z" fill="#354092"/>
<path d="M36.0199 206.33L40.7499 207.53L39.7399 218.41L39.3299 218.37C39.5099 217.14 39.0699 216.71 37.8999 216.6L26.3099 215.53C25.1899 215.43 24.6399 215.63 24.5599 217L24.1499 216.96L25.1299 206.42L29.5899 206.83L29.5499 207.24C27.9299 207.27 25.8699 207.66 25.5499 211.07L25.4399 212.26L31.8399 212.85C31.9299 211.11 30.9699 210.07 28.4999 209.84L28.5399 209.43L36.4699 210.16L36.4299 210.57C34.0299 210.35 32.8699 211.16 32.6899 212.92L37.4899 213.37C39.0399 213.51 39.3599 213.31 39.4699 212.19C39.7399 209.24 38.7799 207.98 35.9899 206.73L36.0299 206.32L36.0199 206.33Z" fill="#354092"/>
<path d="M108.51 234.52C106.12 236.11 104.37 238.82 103.89 240.9C103.41 242.97 102.46 245.68 100.86 247.43" stroke="#354092" stroke-width="2.55" stroke-linecap="round"/>
<path d="M110.1 236.76C108.19 238.99 107.39 240.07 107.39 241.7C107.39 243.22 105.16 247.76 103.41 249.51" stroke="#354092" stroke-width="2.55" stroke-linecap="round"/>
<path d="M113.4 238.77C113.08 241.48 112.6 247.54 109.89 251.68" stroke="#354092" stroke-width="2.55" stroke-linecap="round"/>
<path d="M111.88 238.88C110.76 241.59 110.69 241.98 110.21 244.21C109.73 246.44 108.35 248.54 107.23 249.5" stroke="#354092" stroke-width="2.55" stroke-linecap="round"/>
<path d="M132.89 260.98C131.77 262.89 132.41 263.85 132.89 265.28C133.37 266.71 133.21 271.66 131.93 273.25" stroke="#354092" stroke-width="2.55" stroke-linecap="round"/>
<path d="M134.81 261.78C134.65 263.69 133.85 265.76 134.65 268.31C135.45 270.86 135.61 271.98 135.45 273.89" stroke="#354092" stroke-width="2.55" stroke-linecap="round"/>
<path d="M136.88 261.3C137.68 264.81 137.2 265.28 137.52 266.72C137.84 268.15 138.16 272.14 139.59 273.73" stroke="#354092" stroke-width="2.55" stroke-linecap="round"/>
<path d="M139.11 260.5C140.39 262.41 143.25 268.95 143.25 271.02" stroke="#354092" stroke-width="2.55" stroke-linecap="round"/>
<path d="M137.04 261.94C137.68 263.53 140.55 268.95 140.39 269.59" stroke="#354092" stroke-width="2.55" stroke-linecap="round"/>
<path d="M253.12 339.61C254.4 338.55 257.16 336.63 258.86 336.31C257.69 337.9 253.97 341.41 253.33 342.47C252.91 341.51 253.12 339.6 253.12 339.6V339.61Z" fill="white"/>
<path d="M177.2 354.22C178.32 355.02 181.98 359.16 181.82 360.12C181.66 361.08 181.5 362.99 180.55 362.03C179.59 361.07 179.59 358.37 178.32 357.41C177.04 356.45 176.89 355.82 176.09 354.38C175.29 352.95 177.21 354.22 177.21 354.22H177.2Z" fill="white"/>
<path d="M127.55 149.13L170.88 157.8" stroke="#354092" stroke-width="2.55" stroke-linecap="round"/>
<path d="M139.8 141.21L172.31 152.69" stroke="#354092" stroke-width="2.55" stroke-linecap="round"/>
<path d="M131.51 124L176.46 148.22" stroke="#354092" stroke-width="2.55" stroke-linecap="round"/>
<path d="M150.64 122.08L178.69 144.72" stroke="#354092" stroke-width="2.55" stroke-linecap="round"/>
<path d="M153.05 107.3L182.2 142.17" stroke="#354092" stroke-width="2.55" stroke-linecap="round"/>
<path d="M167.21 108.06L185.7 139.62" stroke="#354092" stroke-width="2.55" stroke-linecap="round"/>
<path d="M174.23 95.31L189.53 138.02" stroke="#354092" stroke-width="2.55" stroke-linecap="round"/>
<path d="M188.25 100.41L194.31 137.07" stroke="#354092" stroke-width="2.55" stroke-linecap="round"/>
<path d="M198.45 89.57L199.09 136.75" stroke="#354092" stroke-width="2.55" stroke-linecap="round"/>
<path d="M209.93 101.68L203.55 137.7" stroke="#354092" stroke-width="2.55" stroke-linecap="round"/>
<path d="M226.5 92.76L207.06 138.98" stroke="#354092" stroke-width="2.55" stroke-linecap="round"/>
<path d="M232.24 106.78L210.88 140.25" stroke="#354092" stroke-width="2.55" stroke-linecap="round"/>
<path d="M247.54 104.87L214.39 142.8" stroke="#354092" stroke-width="2.55" stroke-linecap="round"/>
<path d="M252 117.62L217.58 145.67" stroke="#354092" stroke-width="2.55" stroke-linecap="round"/>
<path d="M263.48 124L219.81 148.54" stroke="#354092" stroke-width="2.55" stroke-linecap="round"/>
<path d="M260.29 138.02L221.72 152.05" stroke="#354092" stroke-width="2.55" stroke-linecap="round"/>
<path d="M264.55 156.13L224.27 160.76" stroke="#354092" stroke-width="2.55" stroke-linecap="round"/>
<path d="M272.4 146.95L223.63 155.87" stroke="#354092" stroke-width="2.55" stroke-linecap="round"/>
<path d="M224.19 165.83C216.78 165.94 208.33 164.71 200.67 160.29C193.64 156.23 183.66 154.4 172.72 155.12C176.23 144.63 186.14 137.07 197.81 137.07C212.42 137.07 224.26 148.91 224.26 163.52C224.26 164.29 224.26 165.08 224.19 165.83Z" fill="#EFEFF0" stroke="#354092" stroke-width="2"/>
<path d="M164.79 270.67C179.34 259.51 204.21 258.01 221.88 265.04C232.54 269.28 251.29 269.07 258.53 265.43C273 258.17 296.75 260.88 310.41 265.62C320.93 269.27 335.04 270.55 347.52 267.55C380.52 259.64 383.89 276.13 383.89 276.13C383.3 273.87 382.57 271.99 381.79 270.84C378.19 265.59 368.75 252.91 365.53 243.24C362.31 233.57 355.1 222.63 351.52 218.7C347.94 214.77 344.26 208.46 342.94 204.24C339.22 192.33 330.27 181.01 330.27 181.01C325.78 175.33 306.34 174.26 304.13 174.29C301.92 174.32 292.23 175.77 282.4 167.07C272.57 158.37 247.43 160.47 242.16 162.31C239.34 163.29 232.24 165.21 223.73 165.34C216.32 165.45 207.84 164.2 200.18 159.78C193.15 155.72 183.16 153.88 172.23 154.61C157.57 155.58 141.19 161.17 127.94 172.22L164.8 270.65L164.79 270.67Z" fill="white"/>
<path d="M206.87 206.79C207.62 205.35 209.79 201.89 210.88 201.22C210.3 198.8 210.5 197.8 211.81 196.35C213.12 194.9 213.99 193.89 213.99 193.89C213.86 192.12 214.23 187.26 217.15 190.65L218.69 190.3C219.86 187.08 221.06 185.85 223.2 189.36C225.85 189.1 225.63 189.11 226.93 187.98C228.24 186.86 231.3 184.61 233.17 184.14C235.04 183.67 236.57 182.66 237.77 181.65C238.97 180.64 245.89 178.01 252.12 181.9C258.35 185.79 264.29 183.73 266.93 183.36C269.57 182.99 278.49 181.22 284.17 185.01C289.85 188.8 294.11 193.49 294.89 194.58C295.68 195.67 296.27 198.98 295.64 201.19C295.01 203.41 296.12 203.94 297.14 206.47C298.17 208.99 297.54 211.76 297.78 213.08C298.02 214.4 298.6 216.38 300.06 218.13C301.52 219.88 301.69 224.51 301.48 225.18C305.9 225.23 306.34 225.56 307.24 226.65C308.14 227.74 309.25 228.06 311.89 227.69C314.53 227.32 315.98 227.97 318.55 230.25C321.12 232.53 323.33 232.73 326.75 232.68C330.17 232.63 337.41 237.39 332.24 238.9C327.07 240.4 312.5 237.77 310.35 236.65C297.79 230.08 270.17 228.69 260.4 232.35C255.19 234.3 235.46 241.07 227.79 236.87C220.7 232.99 211.38 231.46 208.73 231.27C206.08 231.09 200.67 230.94 199.23 230.96C197.8 230.98 195.78 229.02 199.42 228.31C203.05 227.6 203.37 226.82 204.36 225.93C205.34 225.03 214.56 221.05 219.13 223.97C223.7 226.89 224.75 223.45 224.75 223.45C224.75 223.45 228.02 220.1 229.2 218.09C230.39 216.09 233.53 211.3 233.71 208.65C233.9 206 232 204.37 227.51 206.86C223.02 209.35 220.89 212.01 219.29 210.94C217.17 209.53 217.07 210.31 215.09 210.89C213.11 211.47 211.21 209.73 213.18 208.71C215.15 207.69 215.78 204.98 213.82 206.71C209.89 210.18 206.87 206.8 206.87 206.8V206.79Z" fill="#354092"/>
<path d="M226.91 192.6C225.89 193.21 227.27 196.52 228.26 196.07C230.91 194.87 236.59 192.91 234.13 189.76C231.62 186.55 229.17 191.26 226.92 192.6H226.91Z" fill="#EFEFF0"/>
<path d="M217.73 196.22C217.05 196.74 216.21 197.33 216.13 198C216.06 198.56 216.96 199.27 217.68 198.76C219.53 197.43 220.48 197.17 220.32 194.93C220.28 194.31 219.24 193.31 218.76 193.41C216.84 193.79 219.32 195.01 217.73 196.23V196.22Z" fill="#EFEFF0"/>
<path d="M220.62 202.86C219.78 204.43 218.21 205.11 217.22 206.5C216.72 207.21 217.43 208.08 218.03 208.04C221.86 207.81 228.71 202.74 224.69 199.65C222.73 198.15 221.6 201.04 220.62 202.87V202.86Z" fill="#EFEFF0"/>
<path d="M213.7 204.92C214.2 204.36 214.82 203.95 214.49 203.12C213.98 201.84 212.68 202.03 211.93 202.41C210.65 203.05 210.67 205.04 209.26 205.83C210.29 206.91 211.26 207.68 213.71 204.93L213.7 204.92Z" fill="#EFEFF0"/>
<path d="M227.89 200.27C227.37 201.05 227.02 204.06 228.61 203.49C230.43 202.84 233.47 203.85 234.04 201.99C234.74 199.69 229.31 198.15 227.88 200.27H227.89Z" fill="#EFEFF0"/>
<path d="M239 196.48C241.21 199.1 241.17 201.9 240.95 205.23C240.51 204.62 240.03 204.09 239.18 204.38C237.4 204.98 236.31 206.43 235.87 208C234 214.65 230.31 219.28 226.38 224.98C225.93 225.63 225.87 226.95 227.12 227.5C227.41 225.34 230.34 225.23 230.59 223.04C233.46 223.76 235.04 221.37 236.63 219.35C237.15 218.69 236.49 217.97 235.8 217.73C235.27 217.55 234.64 217.68 234.06 217.69C237.73 212.6 242.52 208.46 245.7 203.08C248.58 198.21 250.54 189.5 246.55 184.89C245.15 183.27 240.26 185.68 239.74 188.19C239.47 189.5 243.18 193.34 245.24 195.47C242.86 196.21 238.88 190.31 237.3 191.31C235 192.77 238.23 194.09 237.3 195.57C237.89 195.86 238.61 196.01 239.01 196.49L239 196.48Z" fill="#EFEFF0"/>
<path d="M251.26 191.15C251.26 192.46 251.21 196.44 252 195.83C254.56 193.85 254.61 188.42 251.68 186.47C250.94 185.98 250.1 186.69 250.14 187.28C250.26 189.03 251.26 189.44 251.26 191.14V191.15Z" fill="#EFEFF0"/>
<path d="M244.51 208.71C243.61 211.92 239.9 212.95 238.57 215.7C238.18 216.5 239.07 217.6 239.36 217.24C242.87 212.78 249.77 209.71 247.14 205.15C246.12 206.23 244.95 207.14 244.51 208.71Z" fill="#EFEFF0"/>
<path d="M249.91 200.2C245.95 202.18 248.35 207.57 251.69 208.14C256.77 209 263.52 208.99 265.64 203.13C265.94 202.29 265.44 201.63 264.74 201.48C262.98 201.09 262.41 203.98 260.37 203.21C263.22 200.98 264.59 198.56 265.56 195.19C267.21 198.23 270.29 196.31 272.45 195.5C274.53 194.71 271.43 191.07 273.42 188.91C270.07 186.55 268.41 191.31 265.5 190.78C265.73 189.92 265.22 189.17 264.59 189.17C262.27 189.16 260.22 190.5 258.4 188.23C257.4 189.17 254.86 188.37 255.21 189.97C255.75 192.4 256.53 194.79 256.46 197.07C256.36 200.52 252.23 199.04 249.91 200.2Z" fill="#EFEFF0"/>
<path d="M269.45 205.87C268.54 207.42 268.68 211.97 268.68 211.97C268.68 211.97 272.98 204.51 275.69 200.92C276.14 200.32 276.22 198.62 274.94 198.59C270.57 198.47 271.15 202.99 269.45 205.87Z" fill="#EFEFF0"/>
<path d="M277.23 194.96C281.16 204.69 270.6 210.17 267.69 218.15C267.09 219.79 268.38 220.7 269.44 221.64C272.92 212.34 281.16 206.69 287.41 199.09C289.49 196.56 292.3 190.13 288.31 189.41C284.73 188.76 283.74 194.02 281.48 196.75C278.58 193.71 283.18 190.93 283 187.91C282.96 187.27 282.18 186.71 281.37 187.08C278.31 188.47 275.9 191.63 277.24 194.97L277.23 194.96Z" fill="#EFEFF0"/>
<path d="M286.08 205.6C281.47 209.93 273.15 213.47 273.85 221.57C274.89 220.61 275.29 219.07 275.94 218.35C279.31 214.59 284.27 212.99 288.65 209.82C291.83 207.53 293.14 204.17 294.58 200.9C295.13 199.67 295.02 197.96 294.56 196.62C294.08 195.21 292.13 195.68 292.46 196.43C294.59 201.29 288.59 203.24 286.08 205.6Z" fill="#EFEFF0"/>
<path d="M292.37 214.44C291.1 214.99 288.76 215.97 289.21 216.71C290.54 218.91 294.42 220.01 296.56 219.02C299.11 217.83 295.68 214.74 295.79 210.69C294.2 211.47 294.26 213.63 292.38 214.45L292.37 214.44Z" fill="#EFEFF0"/>
<path d="M254.31 217.26C253.61 217.51 252.55 217.72 252.75 218.33C253.23 219.79 254.58 221.05 256.4 222.23C257.15 222.71 257.86 222.09 258 221.38C258.47 219.1 259 217 256.9 215.77C255.68 215.05 255.23 216.93 254.31 217.26Z" fill="#EFEFF0"/>
<path d="M199.25 247.49C199.29 247.71 199.33 247.95 199.37 248.18C199.79 250.38 199.46 252.07 196.98 252.11C193.32 252.17 192.52 249.83 191.74 246.63L191.33 244.92C190.69 241.86 190.37 239.58 193.94 239.53C195.94 239.53 197.3 240.54 197.95 242.59C198.06 242.89 198.16 243.2 198.22 243.5L196.02 243.53C195.74 242.76 195.47 241.32 194.37 241.34C192.62 241.37 193.27 243.46 193.5 244.39L194.31 247.72C194.55 248.71 195.02 250.33 196.55 250.31C197.78 250.29 197.15 248.31 197.01 247.54L199.25 247.51V247.49Z" fill="#354092"/>
<path d="M200.79 251.89L201.3 239.55L204.23 239.72L209.14 252.36L206.81 252.23L205.66 249.03L203.12 248.89V252.02L200.79 251.89ZM203.13 247.08L204.99 247.18L203.76 243.6C203.55 243.01 203.4 242.44 203.23 241.85C203.16 241.57 203.08 241.28 203 241.01H202.97C202.99 241.27 203.01 241.55 203.04 241.84C203.08 242.42 203.14 242.98 203.14 243.56V247.07L203.13 247.08Z" fill="#354092"/>
<path d="M210.27 252.56L208.54 240.05L210.73 240.35L212.2 251.03L216.26 251.58L216.51 253.42L210.26 252.57L210.27 252.56Z" fill="#354092"/>
<path d="M218.46 253.97L216.3 241.55L218.54 241.99L220.7 254.41L218.46 253.97Z" fill="#354092"/>
<path d="M223.1 255.05L220.55 241.8L226.63 243.51L227 245.45L223.06 244.34L223.71 247.7L227.4 248.74L227.77 250.68L224.08 249.64L225.24 255.65L223.1 255.05Z" fill="#354092"/>
<path d="M228.75 248.95C228.2 245.69 227.96 243.3 231.42 243.92C234.88 244.54 235.59 247.02 236.32 250.32L236.68 252.15C237.35 255.58 237.6 258.04 234.05 257.4C230.5 256.76 229.78 254.21 229.11 250.78L228.75 248.94V248.95ZM231.57 252.39C231.78 253.45 232.19 255.2 233.68 255.47C235.22 255.75 234.9 253.99 234.66 252.75L234.02 249.46C233.82 248.43 233.42 246.16 231.81 245.87C230.11 245.56 230.69 247.84 230.88 248.83L231.58 252.4L231.57 252.39Z" fill="#354092"/>
<path d="M241.36 252.27L242.05 257.68L239.82 258.02L237.55 245.68L242.58 245.22C244.5 244.92 246.04 245.36 246.29 247.54C246.44 248.84 246.26 250.25 244.79 250.68V250.71C246.13 250.68 246.63 251.46 246.76 252.59C246.82 253.08 247.08 256 247.66 256.26L248.08 257.27L245.63 257.65C245.27 256.93 244.76 254.69 244.66 253.9C244.56 253.18 244.46 252.18 243.68 252.07C243.06 251.99 242.4 252.11 241.77 252.2L241.37 252.26L241.36 252.27ZM241.16 250.53L242.91 250.26C243.64 250.1 244.16 249.54 244.02 248.35C243.87 247.02 243.29 246.89 242.44 247L240.3 247.17L241.16 250.52V250.53Z" fill="#354092"/>
<path d="M253.92 243.94L256.11 243.24L257.86 254.94L255.58 255.67L253.25 252.05C252.46 250.85 251.78 249.58 250.99 247.9H250.96C251.18 248.85 251.45 250.01 251.69 251.17C251.93 252.32 252.15 253.47 252.29 254.41L252.62 256.61L250.43 257.31L248.68 245.61L250.95 244.88L253.29 248.59C254.05 249.77 254.73 251 255.55 252.74H255.58C255.34 251.7 255.1 250.58 254.86 249.48C254.63 248.38 254.42 247.27 254.26 246.22L253.92 243.93V243.94Z" fill="#354092"/>
<path d="M260.64 254.22L258.87 242.28L261.05 241.8L262.82 253.75L260.64 254.23V254.22Z" fill="#354092"/>
<path d="M264.6 253.23L264.3 241.05L267.26 240.62L273.04 252L270.69 252.34L269.32 249.44L266.75 249.82L266.96 252.89L264.61 253.23H264.6ZM266.64 248.04L268.52 247.76L267.04 244.5C266.79 243.97 266.6 243.44 266.39 242.9C266.3 242.63 266.2 242.37 266.1 242.13H266.07C266.11 242.39 266.14 242.66 266.2 242.93C266.28 243.49 266.38 244.03 266.41 244.6L266.64 248.04Z" fill="#354092"/>
<path d="M280.13 245.99L280.93 251.06H278.65L276.8 239.3L281.11 239.28C283.08 239.28 284.68 239.93 285.02 242.09C285.22 243.38 285.09 244.73 283.59 244.94V244.97C284.97 245.14 285.51 245.97 285.69 247.1C285.77 247.59 286.16 250.48 286.76 250.82L286.79 251.04H284.28C283.88 250.3 283.71 248.85 283.57 248.07C283.44 247.35 283.3 246.36 282.49 246.14C281.84 245.97 281.18 245.99 280.53 245.99H280.12H280.13ZM279.86 244.27H281.65C282.39 244.21 282.9 243.74 282.72 242.56C282.51 241.24 281.91 241.02 281.04 241.01H279.35L279.86 244.27Z" fill="#354092"/>
<path d="M288.63 251.01L286.55 239.3L293.12 239.95L293.43 241.67L289.19 241.25L289.71 244.2L293.61 244.58L293.91 246.3L290.01 245.92L290.65 249.53L294.89 249.95L295.19 251.67L288.62 251.02L288.63 251.01Z" fill="#354092"/>
<path d="M297.24 252.05L295.05 239.8L299.72 240.86C301.91 241.36 302.89 243.27 303.2 244.99C303.39 246.03 303.32 247.15 302.58 247.64C301.96 248.05 301.03 248.01 300.15 247.79L298.61 247.44L299.53 252.57L297.24 252.05ZM298.29 245.64L299.51 245.92C300.51 246.15 301.1 245.87 300.83 244.39C300.58 242.99 299.99 242.65 298.7 242.35L297.66 242.11L298.29 245.64Z" fill="#354092"/>
<path d="M309.55 244.15L311.91 244.84L312.73 250.81C313.09 253.35 312.6 255.28 309.54 255.31C306.45 255.34 305.29 252.61 304.93 250.07L303.73 242.56L306.43 243.16L307.24 249.86C307.4 250.96 307.72 253.6 309.31 253.58C310.83 253.56 310.52 251.75 310.37 250.65L309.55 244.15Z" fill="#354092"/>
<path d="M315.08 256.65L313.32 244.94L317.14 245.73C318.15 245.94 319.16 246.21 319.96 247.15C320.6 247.9 320.78 248.59 320.9 249.39C321.05 250.41 320.97 251.36 319.75 251.53V251.56C321.12 252.01 321.78 253.15 322 254.66C322.07 255.14 322.11 255.62 322.05 256.06C321.76 257.44 320.95 257.87 319.26 257.52L315.08 256.65ZM317.69 255.53C318.18 255.63 318.7 255.78 319.09 255.7C319.69 255.57 319.66 254.82 319.57 254.23C319.38 252.96 319.03 252.38 317.56 252.07L316.65 251.88L317.18 255.43L317.69 255.54V255.53ZM316.84 250.25C317.42 250.37 318.16 250.55 318.47 250.19C318.65 249.94 318.62 249.54 318.53 248.98C318.4 248.1 318.13 247.63 317.04 247.37L315.94 247.14L316.39 250.15L316.83 250.24L316.84 250.25Z" fill="#354092"/>
<path d="M324.07 258.28L322.38 246.5L324.68 246.67L326.18 256.72L330.45 257.04L330.65 258.77L324.09 258.28H324.07Z" fill="#354092"/>
<path d="M332.49 259.16L329.93 247.43L332.22 247.32L334.78 259.05L332.49 259.16Z" fill="#354092"/>
<path d="M343.51 254.13C343.56 254.35 343.61 254.58 343.65 254.8C344.15 256.92 343.89 258.67 341.42 259.11C337.78 259.77 336.89 257.57 336 254.5L335.52 252.86C334.76 249.91 334.37 247.69 337.91 247.04C339.9 246.71 341.29 247.49 342.02 249.43C342.14 249.72 342.25 250 342.32 250.3L340.14 250.7C339.83 249.98 339.51 248.58 338.42 248.78C336.68 249.1 337.41 251.08 337.67 251.97L338.6 255.16C338.88 256.11 339.41 257.65 340.93 257.37C342.15 257.15 341.45 255.27 341.29 254.53L343.52 254.12L343.51 254.13Z" fill="#354092"/>
<path d="M213.94 195.75C212.88 196.81 212.24 197.45 212.03 198.73C211.73 200.52 212.88 200 213.3 199.15C213.73 198.3 214.79 195.75 214.79 195.75H213.94Z" fill="#EFEFF0"/>
<path d="M215.45 190.46C214.97 191.42 214.57 193.31 214.97 193.01C215.61 192.53 216.56 191.26 216.56 191.26L215.44 190.46H215.45Z" fill="#EFEFF0"/>
<path d="M221.19 191.1C219.62 189.8 221.19 188.87 221.19 188.87L223.58 191.42L221.19 191.1Z" fill="#EFEFF0"/>
<path d="M220.07 192.22C221.03 193.18 222.3 192.86 223.42 193.02C224.54 193.18 225.01 193.98 224.22 195.09C223.42 196.21 222.63 195.41 221.83 194.45C221.03 193.49 220.08 192.22 220.08 192.22H220.07Z" fill="#EFEFF0"/>
<path d="M167.58 175.1C170.75 174.06 173.96 173.39 177.41 172.81L177.56 173.16C175.44 175.06 173.35 177.21 171.39 179.46C173.46 183.26 176.62 185.86 178.36 190.05C174.7 188.59 171.12 186.64 167.36 185.31L166.65 185.5C164.65 188.6 163.51 191.86 162.03 195.28C161.18 192.82 161.34 189.41 161.32 186.75C161.04 185.08 161.52 182.61 159.13 182.96C156.77 182.34 153.85 182.26 151.27 181.91C151.75 180.65 153.79 180.45 155.06 179.72L160.99 177.2C160.96 174.41 160.78 171.28 161.12 168.58C163.26 170.67 165.2 173.15 167.57 175.1H167.58Z" fill="#354092"/>
<path d="M243.63 215.35C242.66 217.02 239.5 220.15 237.21 222.17C239.21 223.14 247.94 223.68 250.02 222.66C252.1 221.64 252.52 220.09 251.4 218.67C250.28 217.25 248.45 216.02 247.59 214.53C245.89 211.57 243.63 215.36 243.63 215.36V215.35Z" fill="white"/>
<path d="M258.15 211.73C259.28 213.81 261.02 219.86 259.5 221.65C257.98 223.44 260.64 224.73 262.84 223.7C265.03 222.68 265.59 222.78 266.36 222.88C266 221.01 266.04 215.38 266.13 214.27C266.23 213.16 265.88 211.62 263.45 211.55C261.02 211.47 258.15 211.73 258.15 211.73Z" fill="white"/>
<path d="M281.41 217.16C278.89 218.3 277.05 221.41 276.73 222.41C280.27 223.03 282.26 223.22 284.24 222.41C286.22 221.61 286.32 220.84 288.66 222.68C291 224.53 292.98 223.73 293.64 223.5C293.62 221.95 293.5 221.51 291.96 221.31C290.41 221.11 287.09 220.38 286.18 218.08C284.89 214.82 281.42 217.15 281.42 217.15L281.41 217.16Z" fill="white"/>
<path d="M137.94 211.15L181.4 321.23C178.42 322.29 178 325.06 179.7 327.39C178.43 329.73 178.21 335.04 179.7 336.95C178.21 337.16 176.09 336.53 175.24 334.61C174.18 338.22 174.18 339.07 175.45 340.77H173.75L174.81 345.23C172.47 343.53 171.62 340.13 171.2 337.15C170.78 334.17 169.08 333.96 167.8 333.54C166.53 333.11 166.74 333.11 164.83 332.26C162.92 331.41 161.43 332.47 160.58 333.54C159.73 334.6 158.88 335.66 157.18 335.45C155.48 335.24 153.99 336.73 153.57 338.42C153.15 340.12 153.57 341.61 152.3 343.09C151.02 344.58 152.3 346.28 153.57 347.34C154.84 348.4 155.27 349.04 155.48 350.1C155.69 351.16 157.87 360.3 160 362C157.66 361.15 155.48 358.81 155.27 357.11C155.06 355.41 152.93 348.61 150.81 347.12C150.17 349.03 149.54 350.52 149.54 350.52C147.2 350.52 144.23 350.1 142.74 348.82C143.8 351.58 144.44 353.92 145.93 354.77C144.02 354.98 143.59 356.89 141.89 356.04C143.38 358.8 144.87 360.5 147.2 361.14C145.5 361.35 145.08 363.26 143.8 363.48C146.56 364.54 152.94 363.69 155.7 363.27C158.46 362.85 163.14 365.82 164.41 368.37C163.77 370.71 164.41 373.9 166.96 374.96C167.6 372.41 168.23 372.84 169.94 373.05C171.64 373.26 170.58 373.9 172.7 375.81C174.83 377.72 180.56 380.48 183.54 381.12C184.6 384.1 193.25 392.04 205.43 393.45C210.96 394.09 209.68 396.21 209.26 398.34C213.72 399.62 224.99 400.46 228.81 400.25C233.91 388.14 243.26 378.15 247.51 374.96C249.42 375.38 253.25 375.38 254.95 374.11C258.99 376.66 266 376.23 270.04 375.6C274.08 374.96 285.13 375.18 285.76 381.76C290.01 381.34 292.13 380.06 292.56 378.15C292.98 376.24 292.98 373.9 294.05 372.41C295.11 370.92 294.9 364.12 294.26 361.79C293.62 359.45 293.84 359.03 294.47 357.96C295.11 356.9 293.62 355.62 291.92 355.2C292.98 352.44 291.5 350.31 289.79 349.67C288.09 349.03 287.45 349.67 287.24 348.4C287.03 347.12 283.84 347.97 282.35 350.1C280.86 352.22 275.76 355.62 272.58 356.47C269.39 357.32 265.57 357.96 264.08 360.08C262.59 358.59 257.92 357.1 255.58 363.48C253.46 363.06 249.84 363.27 248.99 366.67C247.29 366.46 246.23 367.09 246.01 368.79C243.04 369 231.14 384.3 227.95 388.55C229.65 380.47 234.54 373.04 237.51 370.7C240.49 368.36 245.37 370.06 248.77 362.41L246.22 362.2L247.07 357.74L242.82 361.35V356.46C246.01 355.19 246.65 355.61 247.71 353.91C250.05 353.91 254.3 353.7 255.15 351.79C260.67 351.15 272.79 351.15 276.4 331.6C272.36 333.09 266.62 334.36 263.01 333.94C259.4 333.52 253.87 336.06 251.96 338.61C248.35 338.19 244.95 338.82 244.95 343.71C242.82 343.5 243.46 346.05 243.46 347.54C240.27 348.82 234.96 356.46 233.47 358.16L232.83 354.55L229 356.46L228.15 353.91L223.26 355.82C226.02 353.06 226.87 349.02 227.08 346.47C230.27 344.56 236.64 340.31 233.67 336.91C237.49 335.85 238.98 335.63 240.68 336.91C242.38 338.19 245.35 338.19 245.99 334.15C246.63 330.11 246.2 329.48 247.27 327.56C248.33 325.65 248.76 322.88 247.7 320.97C246.64 319.06 247.7 316.72 250.04 315.87C252.38 315.02 253.02 314.81 254.5 313.53C255.99 312.26 257.05 313.53 259.18 313.32C261.3 313.11 265.13 309.49 264.28 307.8C263.43 306.1 262.58 305.46 263.43 303.76C264.28 302.06 263.22 300.36 261.73 300.79C260.24 301.21 260.45 301 258.97 299.94C257.48 298.88 251.53 299.51 248.77 306.31C247.07 308.22 245.37 310.77 244.73 312.9C241.12 311.63 238.36 310.99 236.23 312.05C234.1 313.11 230.49 316.09 227.94 316.72C224.75 311.83 223.69 312.89 221.35 311.83C219.79 311.123 218.373 310.133 217.1 308.86C215.19 306.95 213.27 307.37 209.66 307.37C206.05 307.37 206.05 308.22 204.35 309.49C202.65 310.77 200.95 311.62 198.82 311.19C196.7 310.77 191.38 313.95 190.32 317.14C187.13 317.78 186.49 317.99 186.49 317.99L129.22 169.45C132.09 164.99 129.54 163.39 126.99 163.07L127.63 156.38L115.2 142.04L114.56 162.12L119.66 166.58C118.38 168.49 119.77 171.15 121.25 171.15C115.94 176.04 115.73 185.92 123.59 189.96C122 193.09 118.83 196.1 116.95 198.3C114.13 201.59 108.18 205.47 107.23 212.01C106.98 213.69 107.44 218.54 108.93 221.31C110.42 224.07 112.12 227.9 110.63 230.45C108.93 230.87 108.08 232.57 108.51 234.49C108.93 236.4 110.63 238.95 113.4 238.74C116.16 238.53 116.38 235.34 114.68 233.85C117.23 231.73 116.48 224.16 114.47 221.31C112.19 218.07 111.07 212.17 114.04 208.56C117.02 204.95 125.25 197.83 127.8 192.09C130.99 194.85 135.29 200.7 132.1 207.92C128.91 215.15 128.91 222.69 130.35 225.72C132.57 230.41 134.49 235.28 131.89 242.56C130.56 246.28 129.55 253.18 130.4 255.73C129.34 257.85 128.91 259.77 132.1 261.04C135.29 262.32 139.11 262.32 139.96 259.13C140.81 255.94 138.26 254.03 136.56 253.82C136.35 249.78 136.3 246.15 138.05 242.98C140.55 238.46 141.03 232.41 138.47 227.47C136.09 222.86 135.12 215.68 137.94 211.11V211.15Z" fill="#354092"/>
<path d="M117.22 147.19L123.65 163.92L125.09 156.75L117.22 147.19Z" fill="#EFEFF0"/>
<path d="M181.61 335.67C179.91 332.48 180.12 329.08 181.82 327.38C178.85 323.77 181.82 322.71 183.52 322.71C184.79 320.16 188.19 318.03 190.75 319.95C199.38 317.55 209.23 327.09 210.72 331.55C204.39 329.38 205.55 330.22 209.14 335.68C208.22 333.89 206.05 333.72 205.22 334.22C201.72 330.55 196.89 326.72 187.39 327.72C192.56 327.89 198.72 330.22 202.56 334.89C200.44 334.89 197.86 336.89 196.79 338.59C195.73 340.29 190.97 334.62 189.48 334.83C187.99 335.04 188.63 335.47 186.29 336.53C183.95 337.59 181.61 335.68 181.61 335.68V335.67Z" fill="white"/>
<path d="M192.02 317.61C193.29 315.27 194.89 313.57 198.55 313.41C202.22 313.25 203.33 312.77 205.4 310.86C207.47 308.95 212.25 308.63 214.96 309.9C217.67 311.18 218.31 313.25 221.02 313.88C223.73 314.52 225.48 316.27 225.32 318.18C224.37 321.37 222.9 326.69 223.54 330.03C222.21 325.36 220.37 324.53 220.03 329.71C219.04 323.53 212.71 313.74 210.87 314.03C209.33 314.27 219.7 323.36 212.87 331.53C206.54 320.86 201.73 319.77 199.82 319.61C197.75 317.54 192.01 317.59 192.01 317.59L192.02 317.61Z" fill="white"/>
<path d="M231.71 316.28C233.62 315 235.54 313.09 236.97 312.77C238.4 312.45 243.82 312.61 245.58 315.96C244.94 317.87 245.42 319.94 246.38 321.38C247.33 322.81 247.18 323.93 246.38 325.68C245.58 327.43 244.95 329.51 244.95 331.42C244.95 333.33 244.47 337.32 241.92 335.4C239.37 333.48 235.38 334.28 233.79 335.08C231.59 335.29 227.59 335.78 228.31 334.37C231.89 327.38 240.57 325.35 239.55 325.21C233.55 324.38 225.81 333.39 225.72 332.21C225.62 331.01 225.19 326.79 225.55 325.21C225.92 323.59 227.33 319.44 227.64 320.88C227.96 322.31 228.76 322.31 229.71 320.88C230.67 319.44 234.09 316.76 235.21 316.12C236.33 315.48 236.17 313.73 234.41 315C232.66 316.28 231.7 316.28 231.7 316.28H231.71Z" fill="white"/>
<path d="M260.4 302.74C260.4 302.1 261.43 301.53 262.31 302.26C263.27 303.06 261.67 304.01 261.67 304.01C258.64 305.44 260.39 302.73 260.39 302.73L260.4 302.74Z" fill="white"/>
<path d="M258.16 303.05C258.8 301.62 258.8 300.66 257.36 300.66C255.92 300.66 254.97 300.82 254.97 302.09C254.97 303.36 258.16 303.05 258.16 303.05Z" fill="white"/>
<path d="M261.51 306.24C262.31 307.83 263.42 308.15 262.31 309.43C261.19 310.7 261.35 310.7 261.35 310.7C261.35 310.7 260.39 311.82 258.96 311.18C257.53 310.54 258.48 309.43 259.28 309.11C260.08 308.79 260.71 307.68 260.4 306.72C260.08 305.76 261.52 306.24 261.52 306.24H261.51Z" fill="white"/>
<path d="M257.05 304.81C255.77 304.17 254.98 304.01 254.02 304.17C252.35 304.45 253.38 305.76 253.06 307.2C252.74 308.63 252.42 309.11 251.47 309.75C253.54 309.27 254.82 307.84 255.77 307.04C256.73 306.24 257.05 304.81 257.05 304.81Z" fill="white"/>
<path d="M255.14 310.07C253.55 311.03 250.52 311.19 248.77 311.82C247.02 312.46 246.67 313.25 248.77 313.25C252.59 313.25 255.14 310.06 255.14 310.06V310.07Z" fill="#EFEFF0"/>
<path d="M226.29 344.81C229 343.69 232.03 341.14 232.51 339.71C232.99 338.28 232.67 336.52 231.08 337C228.62 337.74 225.18 337.96 222.16 337.32C219.13 336.68 218.97 338.12 220.73 338.75C222.48 339.39 223.6 339.71 225.51 339.87C222.32 346.56 226.31 344.81 226.31 344.81H226.29Z" fill="white"/>
<path d="M192.18 341.15C195.53 341.15 198.08 340.35 199.19 338.76C200.31 337.17 202.54 336.53 202.22 338.44C201.9 340.35 201.58 341.15 202.22 341.47C203.53 342.13 203.11 344.12 200.15 345.14C194.57 347.05 192.18 341.16 192.18 341.16V341.15Z" fill="white"/>
<path d="M198.4 346.56C199.68 347.04 199.99 347.2 201.11 346.56C202.23 345.92 201.75 354.85 201.75 354.85L198.4 346.56Z" fill="#E6E7E8"/>
<path d="M204.23 339.58C203.85 342.45 205.38 345.7 208.25 344.93C208.06 346.84 208.25 348.76 211.12 347.61C213.99 346.46 211.89 345.89 213.22 345.12C214.56 344.36 217.62 343.12 216.09 340.72C210.22 331.54 213.01 343.01 210.72 343.2C208.43 343.39 213.89 339.53 207.11 335.74C203.14 333.52 204.24 339.57 204.24 339.57L204.23 339.58Z" fill="white"/>
<path d="M222.94 344.97C223.1 346.72 223.9 346.72 225.17 346.72C225.17 348.79 224.69 352.62 222.3 354.53C222.94 352.14 223.26 350.39 222.3 348.95C221.34 347.52 221.25 346.25 221.34 345.28C221.5 343.69 222.93 344.96 222.93 344.96L222.94 344.97Z" fill="white"/>
<path d="M247.65 342.74C246.85 341.09 249.62 339.71 251.74 340.03C251.85 341.2 251 344.81 252.16 345.87C253.33 346.93 253.19 347.79 251.52 347.36C247.38 346.3 247.64 342.74 247.64 342.74H247.65Z" fill="#EFEFF0"/>
<path d="M256.41 349.91C261.19 349.06 270.44 344.81 272.56 339.07C269.69 341.19 261.3 346.19 257.79 346.4C254.28 346.61 256.41 349.91 256.41 349.91Z" fill="white"/>
<path d="M255.38 345.55C258.57 344.3 269.55 339.88 272.67 336.42C274.26 334.65 273.25 333.72 270.97 335.14C263.89 339.55 259.43 332.93 254.05 340.55C252.05 343.38 255.38 345.55 255.38 345.55Z" fill="white"/>
<path d="M251.1 349.49C251.95 349.91 252.16 350.13 253.12 350.23C254.08 350.34 254.18 351.29 252.91 351.72C251.63 352.14 250.25 352.04 250.36 351.08C250.47 350.12 251.1 349.49 251.1 349.49Z" fill="#EFEFF0"/>
<path d="M243.17 350.19C240.75 351.68 238.52 355.4 237.22 357.44C240.19 355.39 243.71 354.85 245.38 353.55C248.73 350.95 243.17 350.19 243.17 350.19Z" fill="#EFEFF0"/>
<path d="M264.49 361.49C267.15 358.94 270.33 358.19 273.95 357.35C277.4 356.54 280.43 354.38 282.24 352.04C283.87 349.93 284.79 352.15 284.05 352.89C283.31 353.63 280.97 356.08 280.54 359.48C280.12 362.88 279.48 364.69 278.2 365.22C276.93 365.75 274.91 366.28 273.53 365.96C272.15 365.64 271.72 367.02 273.11 367.24C274.49 367.45 277.25 367.77 278.63 367.03C277.14 368.84 272.79 370.01 271.51 369.79C270.24 369.58 270.13 369.68 269.39 370C268.65 370.32 266.52 370.53 265.56 369.79C264.6 369.05 265.14 368.3 265.99 368.2C266.84 368.09 267.9 368.09 268.96 367.78C270.02 367.46 270.45 365.97 268.85 366.19C267.26 366.4 265.87 366.72 264.71 365.66C263.54 364.6 264.5 361.52 264.5 361.52L264.49 361.49Z" fill="white"/>
<path d="M281.8 362.13C282.12 359.79 283.08 356.18 283.82 355.44C284.56 354.7 285.41 353.63 285.63 352.78C286.48 354.27 287.25 355.81 286.37 357.56C285.84 358.62 284.67 359.05 283.93 359.68C283.19 360.32 281.8 362.12 281.8 362.12V362.13Z" fill="white"/>
<path d="M286.69 351.82C287.54 352.67 288.6 355.65 288.6 357.45C289.98 355.75 290.94 353.41 289.98 352.14C289.02 350.87 286.69 351.82 286.69 351.82Z" fill="white"/>
<path d="M284.57 349.38C285.21 348.96 286.59 348.21 286.38 349.49C286.17 350.76 285.21 350.66 285.21 350.66L284.57 349.38Z" fill="white"/>
<path d="M267.89 371.59C269.48 371.91 269.27 371.59 269.91 371.17C270.55 370.75 271.4 370.75 272.03 371.17C272.67 371.59 274.79 371.17 275.96 370.64C277.13 370.11 277.66 371.38 276.28 372.13C274.9 372.87 272.88 373.83 271.18 373.62C269.48 373.41 268.21 372.98 267.25 372.56C266.29 372.14 267.89 371.6 267.89 371.6V371.59Z" fill="white"/>
<path d="M289.67 358.84C290.52 358.31 291.16 357.46 291.37 356.72C292.54 357.25 292.75 357.04 292.54 358C292.33 358.96 291.8 360.23 292.43 361.83C293.07 363.42 293.92 369.59 292.32 371.71C290.73 373.84 291.26 376.17 291.36 377.13C291.47 378.09 288.81 380.1 286.9 380.1C286.69 379.68 286.69 379.15 286.16 378.51C287.86 377.66 288.82 376.81 288.92 376.07C289.03 375.33 288.71 373.52 289.24 372.78C289.77 372.04 291.05 370.12 290.94 368C290.83 365.88 289.98 363.54 289.24 362.37C288.5 361.2 289.67 358.86 289.67 358.86V358.84Z" fill="white"/>
<path d="M283.4 362.34C284.04 361.38 285.1 360.53 285.84 360.22C286.58 359.9 287.65 358.67 287.43 359.16C286.69 360.86 287.01 361.39 287.11 362.03C286.15 362.24 283.39 362.35 283.39 362.35L283.4 362.34Z" fill="white"/>
<path d="M278.62 369.46C278.8 369.34 281.17 368.18 281.38 366.27C281.46 365.51 280.96 365.85 280.42 365.74C279.89 365.63 280.85 364.89 281.59 364.68C282.33 364.47 286.26 364.15 287.96 363.41C288.7 365.64 289.23 368.4 288.28 369.57C287.32 370.74 287.01 372.44 287.22 373.5C287.43 374.56 286.79 375.52 285.63 375.94C284.57 374.03 280.11 373.5 278.83 373.71C277.55 373.92 276.81 373.82 277.98 372.54C279.15 371.26 278.62 369.46 278.62 369.46Z" fill="white"/>
<path d="M256.94 363.72C257.58 362.34 258.75 360.53 260.13 360.32C261.51 360.11 262.57 360.64 262.89 361.28C262.04 362.77 262.71 369.97 264.55 372.55C265.61 374.04 264.13 373.63 263.38 373.72C260.62 374.04 259.34 372.98 257.75 372.13C256.16 371.28 256.94 363.73 256.94 363.73V363.72Z" fill="#EFEFF0"/>
<path d="M254.5 364.57C252.91 364.46 250.68 365.74 250.25 366.7C249.83 367.66 252.26 370.64 253.22 371.38C254.18 372.12 254.5 371.27 254.92 369.68C255.34 368.09 254.5 364.57 254.5 364.57Z" fill="#EFEFF0"/>
<path d="M247.06 369.14C247.27 368.4 247.91 367.76 248.76 368.08C249.61 368.4 250.87 370.87 250.55 371.72C250.23 372.57 247.06 369.15 247.06 369.15V369.14Z" fill="#EFEFF0"/>
<path d="M181.64 376.55C181.98 375.36 183 374.34 184.36 374.85C185.72 375.36 185.38 376.04 184.87 377.4C184.36 378.76 181.64 376.55 181.64 376.55Z" fill="#EFEFF0"/>
<path d="M228.05 396.55C230.95 391.11 239.3 378.8 246.3 373.55C249.55 371.3 244.67 371.99 244.8 371.8C242.14 373.71 230.05 386.55 225.3 395.55C224.21 397.61 228.05 396.55 228.05 396.55Z" fill="#EFEFF0"/>
<path d="M241.86 357.03C241.86 358.31 241.01 360 239.31 362.34C237.61 364.68 236.02 366.91 236.12 368.29C236.27 370.2 232.83 369.57 233.36 368.29C233.89 367.01 233.36 366.17 232.72 366.38C232.08 366.59 231.13 365.95 232.08 364.57C233.04 363.19 241.86 357.03 241.86 357.03Z" fill="white"/>
<path d="M230.59 363.62C231.23 362.45 235.26 359.48 236.43 358.31C234.73 358.84 230.8 361.5 229.95 362.56C229.1 363.62 230.59 363.62 230.59 363.62Z" fill="white"/>
<path d="M222.84 396.34C224.43 393.58 224.65 390.71 223.27 387.63C221.89 384.55 222.6 379.77 223.56 377.21C221.86 378.49 220.19 382.63 220.72 384.75C221.25 386.88 222.31 389 221.68 391.13C221.04 393.25 220.03 394.38 219.77 395.81C219.13 399.21 222.85 396.34 222.85 396.34H222.84Z" fill="#EFEFF0"/>
<path d="M229.4 361.58C229.57 360.26 229.49 359.49 229.95 358.62C228.52 359.64 227.46 361.16 227.3 362.63C227.03 365.13 229.4 361.58 229.4 361.58Z" fill="white"/>
<path d="M227.4 355.22L225.49 355.97L227.51 356.39L227.4 355.22Z" fill="white"/>
<path d="M224.46 376.31C226.37 375.25 228.71 374.61 230.62 373.97C232.53 373.33 232.53 367.81 230.2 368.02C227.86 368.23 226.8 368.44 226.16 370.57C225.52 372.69 224.46 376.31 224.46 376.31Z" fill="#EFEFF0"/>
<path d="M213.38 385.72C214.87 387.21 218.51 388.99 219.55 390.72C220.19 391.78 218.48 392.22 218.48 392.84C218.48 393.26 217.46 393.65 216.67 392.63C214.54 389.87 213.38 385.72 213.38 385.72Z" fill="#EFEFF0"/>
<path d="M218.16 396.87C214.15 394.2 211.73 384.23 211.66 382.2C211.1 385.17 213.24 394.88 214.78 396.47C217.9 399.69 218.16 396.87 218.16 396.87Z" fill="#EFEFF0"/>
<path d="M211.55 383.05C212.08 381.03 212.74 377.17 213.22 376.22C213.64 375.37 214.87 373.08 214.66 371.8C214.45 370.52 213.28 370.42 212.54 371.8C211.8 373.18 212.12 374.35 212.12 375.63C212.12 376.91 211.56 383.06 211.56 383.06L211.55 383.05Z" fill="#EFEFF0"/>
<path d="M210.51 382.85C210.83 381.04 211.04 379.88 210.08 378.39C209.12 376.9 207.96 379.14 208.49 380.41C209.02 381.69 208.97 381.8 209.23 382.85C209.76 384.97 210.51 382.85 210.51 382.85Z" fill="#EFEFF0"/>
<path d="M208.72 371.38L210.51 377.11C212.42 375.52 210.83 372.75 210.4 371.58C210.14 370.87 209.06 369.55 208.21 369.87C207.36 370.19 208.71 371.37 208.71 371.37L208.72 371.38Z" fill="#EFEFF0"/>
<path d="M207.42 365.49C208.06 369.32 212.07 370.04 213.71 369.05C216.9 367.14 220.05 363.83 218.21 363.55C215.65 363.15 214.76 367.8 209.54 363.05C203.35 357.42 207.42 365.49 207.42 365.49Z" fill="#EFEFF0"/>
<path d="M210.07 360.56C211.82 362.08 212.76 362.9 214.86 362.66C216.96 362.43 217.75 361.94 218.69 360.54C219.62 359.14 219.66 357.76 220.01 356.94C220.13 356.67 221.77 351.11 220.72 349.72C219.66 348.33 220.72 345.89 219.05 343.89C218.22 342.89 217.88 343.99 216.88 345.06C215.88 346.13 214.21 347.14 214.05 347.56C213.41 349.16 210.14 350.71 208.38 349.89C206.63 349.07 204.4 345.05 202.88 346.22C201.36 347.39 210.07 360.56 210.07 360.56Z" fill="white"/>
<path d="M199.62 366.06C196.01 364.36 188.83 359.68 186.71 354.16L185.65 354.69C188.84 360.85 193.67 365.79 200.47 368.56L199.62 366.06Z" fill="#EFEFF0"/>
<path d="M183.58 348.64C184.83 347.08 184.24 344.87 183.89 344.18C183.54 343.5 182.83 345.02 182.23 346.45C181.63 347.88 183.58 348.64 183.58 348.64Z" fill="#EFEFF0"/>
<path d="M185.65 352.46C186.65 351.21 186.17 349.44 185.9 348.9C185.62 348.35 185.05 349.57 184.58 350.71C184.1 351.85 185.66 352.46 185.66 352.46H185.65Z" fill="#EFEFF0"/>
<path d="M179.11 341.47C179.23 339.9 178.36 339.18 177.52 338.44C176.67 337.7 175.16 336.84 175.52 338C175.88 339.16 176.47 340.59 177.28 341.78C178.09 342.97 179.11 341.47 179.11 341.47Z" fill="white"/>
<path d="M177.2 345.61C177.39 344.44 176.97 343.26 176.39 342.66C175.8 342.05 174.9 341.82 175.1 342.71C175.3 343.6 175.28 344.79 175.82 345.73C176.36 346.67 177.21 345.61 177.21 345.61H177.2Z" fill="white"/>
<path d="M182.46 349.75C181.03 347.52 178.32 346.4 176.72 346.88C175.13 347.36 174.97 348 176.08 348.63C177.2 349.27 181.82 350.65 182.93 352.14C184.36 354.05 182.45 349.75 182.45 349.75H182.46Z" fill="white"/>
<path d="M160.79 335.57C161.59 334.61 162.86 333.18 164.3 333.5C165.73 333.82 167.33 334.3 168.28 335.09C169.24 335.89 169.87 337.8 170.03 339.23C170.19 340.66 166.86 343.46 167 342.26C167.32 339.55 165.88 337.48 164.45 338.28C163.02 339.08 162.22 338.76 161.26 338.12C160.3 337.48 160.78 335.57 160.78 335.57H160.79Z" fill="white"/>
<path d="M158.24 336.84C156.33 336.84 154.73 337.32 154.89 338.43C155.05 339.55 154.41 342.26 153.46 343.21C152.5 344.17 153.46 346.08 154.89 346.56C156.32 347.04 158.87 345.44 157.6 344.49C156.33 343.53 156.01 341.94 156.96 340.66C157.92 339.38 159.83 339.38 159.67 338.11C159.51 336.84 158.24 336.84 158.24 336.84Z" fill="white"/>
<path d="M162.67 340.6C163.18 339.58 165.86 338.81 165.98 339.96C166.11 341.11 164.96 342.25 163.81 342.25C162.66 342.25 162.66 340.59 162.66 340.59L162.67 340.6Z" fill="white"/>
<path d="M162.38 342.9C161.9 341.63 161.58 339.71 160.15 340.51C158.72 341.31 158.56 341.31 159.83 342.58C161.1 343.86 162.38 342.9 162.38 342.9Z" fill="white"/>
<path d="M172.1 343.22C171.77 342.33 171.54 340.99 170.54 341.55C169.54 342.11 169.42 342.11 170.32 343C171.21 343.89 172.1 343.22 172.1 343.22Z" fill="white"/>
<path d="M158.71 348.32C159.83 347.36 160.13 344.74 162.05 345.22C163.96 345.7 165.97 347.63 167.88 349.39C169.79 351.14 175.41 353.3 176.05 354.89C181.05 355.39 181.82 360.12 181.11 362.68C177.72 362.39 173.65 364.4 172.05 364.72C170.46 365.04 164.95 359.74 163.5 358.04C161.59 355.81 160.47 353.74 159.99 350.87C159.65 348.82 158.72 348.32 158.72 348.32H158.71Z" fill="white"/>
<path d="M156.8 347.84C156.8 351.03 160.31 362.34 165.73 366.49L167.8 364.9C161.74 361.23 156.8 347.85 156.8 347.85V347.84Z" fill="white"/>
<path d="M165.25 344.17C166.68 344.17 168.44 344.49 168.92 343.37C168.15 342.32 179.76 352.61 176.09 352.14L172.42 349.27C170.03 348.47 165.25 344.17 165.25 344.17Z" fill="white"/>
<path d="M145.69 351.7C146.71 352.21 148.37 352.08 149.13 352.08C149.64 353.1 149.64 354.25 149.38 355.01C147.72 354.5 145.68 351.7 145.68 351.7H145.69Z" fill="#EFEFF0"/>
<path d="M144.32 357.23C145.21 357.23 145.98 356.34 146.49 356.08C147.25 356.84 148.15 357.36 148.91 357.48C148.4 358.5 147.89 359.14 147 359.39C145.73 358.88 144.32 357.22 144.32 357.22V357.23Z" fill="#EFEFF0"/>
<path d="M150.25 360.27C149.36 361.03 148.34 362.18 147.57 362.56C148.72 362.82 151.27 362.56 152.03 362.18C151.26 361.8 150.24 360.27 150.24 360.27H150.25Z" fill="#EFEFF0"/>
<path d="M151.22 349.27C150.74 350.55 151.12 352.58 151.22 353.73C151.54 357.56 153.13 358.35 152.97 355.8C152.81 353.25 151.22 349.27 151.22 349.27Z" fill="#EFEFF0"/>
<path d="M166.36 372.86C165.56 371.9 165.24 368.56 166.2 367.92C167.16 367.28 170.82 366.49 172.89 367.76C173.85 367.12 175.28 366.01 175.28 364.73C176.08 366.32 176.4 368.24 175.76 369.03C177.19 369.51 181.42 369.12 182.38 370.71C183.34 372.3 183.02 374.06 180.79 374.54C178.56 375.02 174.62 374.08 173.22 372.86C168.12 368.4 166.37 372.86 166.37 372.86H166.36Z" fill="#EFEFF0"/>
<path d="M177.68 367.76C178.64 368.24 181.35 368.72 181.98 367.6C182.62 366.48 182.3 364.09 181.34 363.93C180.38 363.77 178.95 364.41 179.27 365.21C179.59 366.01 178.31 366.17 177.68 365.85C178.16 366.65 177.68 367.76 177.68 367.76Z" fill="#EFEFF0"/>
<path d="M186.76 363.3C187.4 363.78 189.63 364.73 190.43 364.57C189.47 363.3 188.2 361.86 188.2 361.38C187.88 362.5 186.77 363.29 186.77 363.29L186.76 363.3Z" fill="#EFEFF0"/>
<path d="M196.49 376.05C197.29 375.89 200.79 376.69 201.75 377.48C202.71 378.28 202.55 378.91 201.43 378.91C200.31 378.91 197.13 378.43 196.49 377.79C195.85 377.15 196.49 376.04 196.49 376.04V376.05Z" fill="#EFEFF0"/>
<path d="M201.43 380.19C199.84 380.35 196.17 379.23 194.9 378.6C193.63 378.76 189.16 379.08 186.29 377.8C187.88 379.55 191.87 380.83 193.62 380.83C195.37 380.83 198.56 381.31 199.68 381.95C200.64 381.63 201.43 380.2 201.43 380.2V380.19Z" fill="#EFEFF0"/>
<path d="M125.51 173.32L128.7 181.5L130.5 178.53L127.85 171.62L125.51 173.32Z" fill="#EFEFF0"/>
<path d="M181.82 338.12C184.21 339.08 186.28 339.08 187.72 337.8L198.88 364.1C195.21 361.55 187.41 356.88 187.41 351.19C187.41 343.38 186.61 347.52 185.34 347.05C185.34 343.38 186.46 340.99 184.54 340.52C184.7 342.27 182.79 344.29 182.68 342.7C182.52 340.31 181.83 338.13 181.83 338.13L181.82 338.12Z" fill="#EFEFF0"/>
<path d="M223.37 356.18C222.95 356.92 222.18 358.72 222.63 359.47C224.22 362.13 224.28 365.45 224.33 368.08C224.44 374.14 217.8 378.54 218.35 383.11C218.59 385.08 218.38 385.93 219.12 387.52C217 386.67 213.6 385.71 213.7 382.42C213.81 379.13 215.56 376.78 216.04 374.98C216.46 373.39 216.25 370.31 216.89 369.14C217.95 367.2 220.12 365.13 220.18 363.19C220.39 357.13 223.37 356.18 223.37 356.18Z" fill="#EFEFF0"/>
<path d="M203.66 376.21L201.91 371.91C197.61 370 191.84 366.17 190.59 366.17C188.2 366.17 185.49 364.36 184.53 362.98C186.34 362.02 186.6 362.18 186.92 361.07C187.24 359.95 184.69 355.97 183.1 354.85C181.51 353.73 180.07 352.78 178.64 352.78C181.03 355.17 182.31 357.56 182.94 358.99C183.58 360.43 184.22 361.06 183.1 362.5C181.98 363.93 183.58 363.62 184.06 365.69C184.54 367.76 184.7 368.56 184.06 369.83C183.42 371.1 184.06 372.86 184.86 373.18C185.66 373.5 185.82 374.61 186.29 375.73C186.77 376.85 194.82 377.81 194.74 375.89C194.58 372.06 203.67 376.21 203.67 376.21H203.66Z" fill="#EFEFF0"/>
<path d="M205.41 380.46L209.39 389.44C205.25 388.96 200.78 387.85 199.03 386.09C199.35 383.7 201.9 383.97 202.86 381.73C203.82 379.5 205.41 380.46 205.41 380.46Z" fill="#EFEFF0"/>
<path d="M225.81 378.28C224.64 379.87 224 381.2 224.54 383.11C225.07 385.02 225.5 386.46 225.6 387.63C226.24 382.32 228.36 380.19 229.74 377.11C228.68 376.37 225.81 378.28 225.81 378.28Z" fill="#EFEFF0"/>
<path d="M129.87 167.9C133.38 169.81 138.79 176.83 129.66 187.88L127.75 182.89C129.87 178.75 131.26 172.9 127.01 170.78L129.88 167.91L129.87 167.9Z" fill="#354092"/>
<path d="M200.59 229.18C203.59 228.68 205.12 227.06 206.05 226.56C210.05 224.39 216.8 223.56 219.3 225.31C221.8 227.06 220.55 226.56 219.05 227.31C217.55 228.06 218.3 229.06 220.05 229.56C221.8 230.06 227.8 231.56 230.55 229.81C233.3 228.06 235.64 225.44 236.55 223.56C241.05 224.89 245.55 224.73 247.05 224.39C246.05 225.72 245.88 227.06 248.22 227.22C250.55 227.39 255.72 226.72 257.39 224.89C256.72 224.5 260.39 226.39 263.22 224.89C260.09 229.36 265.4 228.03 263.89 228.22C266.56 227.89 268.39 226.72 271.39 226.39C274.39 226.06 275.56 226.89 276.56 225.72C277.56 224.55 276.89 223.55 276.89 223.55C279.39 224.05 282.72 225.22 283.89 223.88C284.44 223.25 286.56 223.05 287.22 223.55C288.18 224.27 290.39 225.22 290.72 225.22C289.43 225.55 289.43 226.68 290.3 226.93C292.09 227.44 291.88 227.72 295.22 227.22C298.55 226.72 299.55 225.55 300.72 225.89C301.89 226.22 303.05 226.22 304.22 226.39C305.39 226.56 306.39 227.22 307.39 228.06C308.39 228.9 310.39 229.39 311.56 228.89C312.73 228.39 314.56 228.72 315.73 229.72C316.9 230.72 319.98 234.44 326.06 233.89C327.89 233.72 331.73 234.89 331.89 236.72C332.06 238.55 330.39 238.39 327.56 238.22C324.73 238.05 315.56 237.22 311.06 235.22C306.56 233.22 292.06 228.72 280.73 229.39C272.31 229.88 263.62 229.01 255.9 232.39C247.9 235.89 240.73 236.72 233.4 236.56C228.21 236.44 225.9 234.71 221.9 233.06C217.07 231.06 213.07 230.73 209.57 230.23C206.07 229.73 203.24 230.23 201.57 230.4C199.9 230.57 200.61 229.19 200.61 229.19L200.59 229.18Z" fill="white"/>
<path d="M246.21 344.88C244.88 344.71 244.38 345.21 244.71 346.55C245.04 347.88 244.71 348.72 245.88 349.38C247.05 350.05 248.88 351.21 249.21 350.88C249.54 350.55 250.21 348.55 250.21 348.55C246.88 348.05 246.21 344.88 246.21 344.88Z" fill="#EFEFF0"/>
<path d="M192.72 344.22L206.72 377.72C207.05 376.72 207.89 376.22 208.55 376.22C209.21 376.22 196.88 347.05 196.88 347.05C195.38 346.72 192.71 344.22 192.71 344.22H192.72Z" fill="#EFEFF0"/>
<path d="M185.8 379.8C188.18 381.18 192.3 382.8 193.92 382.68C195.54 382.56 196.8 382.3 198.04 383.18C197.04 384.43 195.92 386.68 197.66 387.3C199.4 387.92 205.28 390.68 208.78 390.92C212.28 391.16 210.66 392.67 209.78 392.92C208.9 393.17 199.97 390.9 197.9 390.17C195.78 389.42 192.38 387.75 189.78 385.92C186.4 383.54 185.03 381.3 184.28 380.8L185.78 379.8H185.8Z" fill="#EFEFF0"/>
<path d="M123.44 174.92C120.89 176.83 121.42 183.69 125.88 185.76L126.78 183.53L123.43 174.92H123.44Z" fill="#E6E7E8"/>
<path d="M129 171.17C142.26 160.12 158.63 154.53 173.29 153.56C184.23 152.83 194.21 154.68 201.24 158.73C208.9 163.15 217.38 164.4 224.79 164.29C233.3 164.16 240.4 162.24 243.22 161.26C248.49 159.42 273.63 157.32 283.46 166.02C293.29 174.72 302.98 173.27 305.19 173.24C307.4 173.21 326.84 174.28 331.33 179.96C331.33 179.96 340.28 191.28 344 203.19C345.32 207.4 349 213.72 352.58 217.65C356.16 221.58 363.37 232.52 366.59 242.19C369.81 251.86 379.25 264.54 382.85 269.79C383.64 270.94 384.26 272.61 384.85 274.87C386.97 282.97 386.26 295.77 370.75 297.36C379.09 293.28 377.64 284.46 365.29 285.07C352.93 285.68 353.39 286.49 346.5 286.83C341.5 287.08 331.75 289.83 317.25 285.08C305.75 281.31 287.38 279.91 273.86 285.23C259.83 290.76 234.55 289.91 217.38 285.27C200.64 280.76 180.7 283.11 174.2 292.03L128.98 171.18L129 171.17Z" stroke="#354092" stroke-width="2"/>
<path d="M132.84 182.67C132.31 183.73 131.46 185.96 130.93 186.71L182.89 320.16C183.85 319.1 184.27 318.78 185.44 318.25L132.85 182.67H132.84Z" fill="#EFEFF0"/>
<path d="M124.24 167.16C126.15 168.22 127.8 168.22 128.7 167.37C130.03 166.12 128.91 164.61 127.21 164.61C125.51 164.61 124.23 167.16 124.23 167.16H124.24Z" fill="#EFEFF0"/>
<path d="M121.68 167.8C121.89 169.08 124.38 171.27 125.72 170.14C126.41 169.56 121.68 167.8 121.68 167.8Z" fill="#EFEFF0"/>
<path d="M109.78 232.45C109.3 233.57 110.34 235.96 111.77 236.43C113.2 236.91 114.69 235.99 114.37 234.71C112.61 234.61 112.04 235.21 111.53 234.36C109.97 231.75 109.78 232.45 109.78 232.45Z" fill="#EFEFF0"/>
<path d="M132.42 259.39C134.17 260.35 137.2 260.82 138.32 259.07C139.39 257.38 138 255.72 137.2 255.4C138 256.99 137.52 257.95 136.72 258.27C135.92 258.59 134.5 257.4 133.21 257.31C130.82 257.15 132.41 259.38 132.41 259.38L132.42 259.39Z" fill="#EFEFF0"/>
<path d="M136.64 206.82L133.55 207.92C133.9 206.61 134.11 205.47 135.13 204.41C136.68 203.94 136.09 206.08 136.64 206.82Z" fill="#EFEFF0"/>
<path d="M137.51 208.64C137 211.57 133.97 211.7 131.66 212.57C131.35 211 133.36 210.33 134.04 209.14C135.12 208.72 136.4 208.75 137.51 208.64Z" fill="#EFEFF0"/>
<path d="M135.73 212.76C135.5 215.34 132.46 215.32 130.64 216.3C130.87 213.72 133.55 213.3 135.73 212.76Z" fill="#EFEFF0"/>
<path d="M131.51 220.44C130.85 218.59 132.43 218.43 133.29 217.39L134.35 216.8C134.33 218.24 132.24 219.72 131.51 220.44Z" fill="#EFEFF0"/>
<path d="M135.06 219.54C135.16 222.25 133.1 224.05 131.84 225.93C130.41 222.71 133.85 221.9 134.42 219.6L135.05 219.54H135.06Z" fill="#EFEFF0"/>
<path d="M135.87 224.57C136.07 226.63 134.97 228.49 133.5 229.76C132.49 227.62 134.63 226.61 135.08 224.65L135.87 224.57Z" fill="#EFEFF0"/>
<path d="M137.52 232.06L135.06 234.7C134.53 232.51 135.75 230.32 137.34 228.56C138.23 229.43 137.89 230.91 137.52 232.06Z" fill="#EFEFF0"/>
<path d="M138.19 238.09C137.39 239.77 135.84 240.24 134.65 241.15C134.34 237.98 136.77 236.63 138.32 234.56C138.37 235.03 138.74 237.24 138.19 238.09Z" fill="#EFEFF0"/>
<path d="M136.44 242.3C135.64 243.98 134.64 245.19 132.96 246C133.42 244.2 134.74 242.95 136.44 242.3Z" fill="#EFEFF0"/>
<path d="M132.24 251.6L131.76 251.65C132.21 249.69 133.45 247.65 135.43 246.66C136.64 249.26 133.54 250.2 132.24 251.61V251.6Z" fill="#EFEFF0"/>
<path d="M135.37 251.98C135.53 253.56 134.19 254.65 132.96 255.09C132.54 254.01 133.98 252.43 135.37 251.98Z" fill="#EFEFF0"/>
<path d="M126.93 191.28C126.25 192.47 124.93 193.71 122.98 193.42C122.9 192.63 123.96 192.04 124.69 191.33C125.34 191.43 126.26 191.02 126.92 191.27L126.93 191.28Z" fill="#EFEFF0"/>
<path d="M124.88 195.07C124.05 196.43 122.72 197.52 120.76 197.07L119.89 196.36C121.21 195.11 123.35 194.1 124.88 195.07Z" fill="#EFEFF0"/>
<path d="M121.12 198.87C121.39 199.96 119.71 200.77 118.64 201.35C117.83 201.27 115.76 201.31 116.12 200.16C117.64 199.37 119.34 197.13 121.11 198.87H121.12Z" fill="#EFEFF0"/>
<path d="M117.77 202.66C116.74 203.56 115.48 205.44 113.33 204.69C112.64 202.52 116.12 202.18 117.77 202.66Z" fill="#EFEFF0"/>
<path d="M114.27 206.32C113.63 207.98 111.37 207.72 109.78 207.88C110.04 207.22 110.62 206.68 111.54 206.27C112.35 206.35 113.41 205.77 114.26 206.32H114.27Z" fill="#EFEFF0"/>
<path d="M112.54 209.51C111.73 211.03 110.37 211.8 108.44 211.67C109.09 210.17 111.5 208.65 112.54 209.51Z" fill="#EFEFF0"/>
<path d="M111.41 213.01C111.77 215.05 109.6 215.74 108.23 216.52C108.11 215.25 108.79 212.47 111.41 213.01Z" fill="#EFEFF0"/>
<path d="M110.03 221.6C109.1 220.47 109.62 218.78 110.34 217.77L111.35 216.99C111.92 218.7 111.29 220.53 110.03 221.6Z" fill="#EFEFF0"/>
<path d="M113.08 221.06C114.07 223.04 111.9 223.73 111.55 225.05C110.26 223.26 112.24 222.26 113.08 221.06Z" fill="#EFEFF0"/>
<path d="M114.55 227.55L112.9 228.67C111.94 227.01 113.26 225.76 114.08 224.4C114.78 224.97 114.61 226.59 114.55 227.55Z" fill="#EFEFF0"/>
<path d="M114.13 232.51L112.47 232.85C112.26 231.23 113.7 230.68 114.8 229.89C115.16 230.57 114.5 231.78 114.14 232.52L114.13 232.51Z" fill="#EFEFF0"/>
<path d="M122.18 173.62C122.1 174.15 121.5 174.6 120.85 174.66L119.81 174.63C120.4 174.05 120.97 173.22 122.18 173.62Z" fill="#EFEFF0"/>
<path d="M132.81 193.53C133.19 193.9 133.2 194.65 132.88 195.21L132.25 196.04C132.13 195.22 131.78 194.27 132.81 193.53Z" fill="#EFEFF0"/>
<path d="M135 201.36C135.38 201.73 135.39 202.49 135.07 203.05L134.44 203.88C134.32 203.06 133.97 202.11 135 201.37V201.36Z" fill="#EFEFF0"/>
<path d="M121.73 176.36C121.06 177.46 119.56 178.13 118.17 178.53C118.25 176.7 120.02 176.14 121.73 176.36Z" fill="#EFEFF0"/>
<path d="M121.01 180.66L118.57 183.24C117.93 182.72 118.4 181.5 118.32 180.69C118.68 179.6 120.2 179.57 120.98 179.14C121.58 179.32 121.21 180.29 121.01 180.66Z" fill="#EFEFF0"/>
<path d="M121.76 182.63C122.54 184.66 120.49 185.21 120.78 186.93C119.62 187.04 119.95 185.61 119.87 184.8C120.75 184.25 120.62 182.86 121.76 182.63Z" fill="#EFEFF0"/>
<path d="M124.6 189.09C123.74 189.56 122.36 188.79 122.5 187.48C122.66 186.43 123.25 185.85 123.56 185.04C124.87 185.17 123.7 187.75 124.6 189.09Z" fill="#EFEFF0"/>
<path d="M131.6 193.26C130.74 193.73 129.36 192.96 129.5 191.65C129.66 190.6 129.91 190.53 130.22 189.72C131.53 189.85 131.39 191.89 131.6 193.27V193.26Z" fill="#EFEFF0"/>
<path d="M140.38 268.73L138.28 262.54L139.03 262.59L140.38 268.73Z" fill="#EFEFF0"/>
<path d="M137.01 262.38C136.84 264.38 136.84 269.88 138.68 272.05C140.51 274.22 139.18 273.88 138.68 271.55C138.18 269.22 137.01 262.38 137.01 262.38Z" fill="#EFEFF0"/>
<path d="M112.72 238.38L113.89 238.05C113.89 241.55 112.06 249.22 110.72 250.88C109.39 252.55 109.68 252.42 110.55 250.38C112.55 245.71 112.72 238.38 112.72 238.38Z" fill="#EFEFF0"/>
<path d="M111.17 240.05C110.34 241.98 110.11 243.72 109.79 244.67C109.41 245.79 109.41 246.42 108.79 247.05C110.29 245.17 110.91 244.05 110.91 243.05C110.91 241.8 111.16 240.05 111.16 240.05H111.17Z" fill="#EFEFF0"/>
<path d="M139.88 262.05L140.05 261.13C141.22 263.21 143.22 268.38 143.3 269.96C142.2 267.91 139.88 262.04 139.88 262.04V262.05Z" fill="#EFEFF0"/>
<path d="M131.62 180.88C131.79 182.62 130.99 184.3 129.12 184.8L128.33 184.88C128.18 183.3 129.03 182.25 130.07 181.35C130.72 181.45 131.32 181.07 131.62 180.88Z" fill="#EFEFF0"/>
<path d="M129.56 186.21C129.81 187.15 129.43 188.14 128.54 188.87C127.8 189.42 126.72 189.85 125.44 189.81C125.32 188.54 126.65 187.45 127.36 186.58C128.14 186.34 128.96 186.58 129.56 186.2V186.21Z" fill="#EFEFF0"/>
<path d="M132.55 174.38L131.12 176.12C130.68 174.88 131.27 174.35 131.82 173.49C132.31 173.6 132.5 173.9 132.55 174.38Z" fill="#EFEFF0"/>
<path d="M133.1 175.91C133.49 176.67 133.43 177.64 133.5 178.43C132.79 179.3 131.71 179.72 130.61 179.99C130.01 178.77 131.91 178.58 131.61 177.17C132.05 176.81 132.47 176.13 133.09 175.91H133.1Z" fill="#EFEFF0"/>
<path d="M131.49 170.02C132.53 170.88 131.53 172.09 130.98 172.95C130.68 173.14 130.57 173.63 130.08 173.52C130.07 171.76 129 170.59 127.81 169.9C127.89 169.09 129.01 169.14 129.27 168.48C130.22 168.39 130.96 169.43 131.5 170.02H131.49Z" fill="#EFEFF0"/>
<path d="M134.92 262.8C134.69 265.32 134.65 268.24 135.3 269.42C136.05 270.8 135.8 271.3 135.8 272.17C135.8 273.04 135.92 273.42 135.92 273.42C135.92 273.42 135.3 274.04 135.3 273.42C135.3 272.8 135.3 270.67 134.42 269.04C133.8 267.89 133.67 263.92 134.04 262.54L134.92 262.79V262.8Z" fill="#EFEFF0"/>
<path d="M110.05 237.43C109.17 238.31 107.67 240.18 107.8 241.43C107.93 242.68 106.68 245.55 105.8 246.81C104.92 248.07 104.18 247.93 105.05 246.56C105.92 245.19 106.93 243.06 107.17 241.06C107.41 239.06 109.05 237.31 109.67 236.81L110.05 237.43Z" fill="#EFEFF0"/>
</g>
<defs>
<clipPath id="clip0_114_2223">
<rect width="463.1" height="463.1" fill="white"/>
</clipPath>
</defs>
</svg>
