<svg width="35" height="35" viewBox="0 0 35 35" fill="none" xmlns="http://www.w3.org/2000/svg">
<path d="M29.2865 3.00269H6.0494C4.1244 3.00269 2.56836 4.52956 2.56836 6.41373V29.1652C2.56836 31.0479 4.1244 32.5762 6.0494 32.5762H17.0802V20.7783H13.0202V16.0752H17.0802V12.6058C17.0802 8.57935 19.539 6.38748 23.1294 6.38748C24.8502 6.38748 26.3304 6.51873 26.7607 6.57123V10.78H24.2713C22.3171 10.78 21.9394 11.7089 21.9394 13.0696V16.0752H26.5959L25.9936 20.7783H21.9409V32.5762H29.2879C31.2115 32.5762 32.7704 31.0479 32.7704 29.1652V6.41373C32.769 4.52956 31.21 3.00269 29.2865 3.00269Z" fill="#DBDBDB"/>
</svg>
