<svg width="35" height="35" viewBox="0 0 35 35" fill="none" xmlns="http://www.w3.org/2000/svg">
<g id="share-email">
<path id="Exclude" fill-rule="evenodd" clip-rule="evenodd" d="M7 2.99988C4.79086 2.99988 3 4.79074 3 6.99988V27.9999C3 30.209 4.79086 31.9999 7 31.9999H28C30.2091 31.9999 32 30.209 32 27.9999V6.99988C32 4.79074 30.2091 2.99988 28 2.99988H7ZM22.4444 21.8499V13.8698C23.9662 15.0775 25.8979 15.7999 28 15.7999V12.4999C24.9318 12.4999 22.4444 10.0374 22.4444 6.99988H19.1111V21.8499C19.1111 23.9762 17.37 25.6999 15.2222 25.6999C13.0744 25.6999 11.3333 23.9762 11.3333 21.8499C11.3333 19.7236 13.0744 17.9999 15.2222 17.9999C15.8187 17.9999 16.3838 18.1328 16.8889 18.3704V14.8912C16.3539 14.7661 15.7959 14.6999 15.2222 14.6999C11.2335 14.6999 8 17.901 8 21.8499C8 25.7988 11.2335 28.9999 15.2222 28.9999C19.211 28.9999 22.4444 25.7988 22.4444 21.8499Z" fill="#DBDBDB"/>
</g>
</svg>
