<svg width="35" height="35" viewBox="0 0 35 35" fill="none" xmlns="http://www.w3.org/2000/svg">
<g id="share-email">
<path id="Exclude" fill-rule="evenodd" clip-rule="evenodd" d="M7 3C4.79086 3 3 4.79086 3 7V28C3 30.2091 4.79086 32 7 32H28C30.2091 32 32 30.2091 32 28V7C32 4.79086 30.2091 3 28 3H7ZM13.3317 7.07161H22.1874C25.6992 7.07161 28.4475 9.81994 28.5239 13.3317V22.2638C28.5239 25.6992 25.6992 28.5239 22.2638 28.5239H13.3317C9.89628 28.5239 7.07161 25.6992 7.07161 22.2638V13.3317C7.07161 9.81994 9.81994 7.07161 13.3317 7.07161ZM12.7973 17.7596C12.7973 20.5079 15.0112 22.7218 17.7596 22.7218C20.5079 22.7218 22.7218 20.5079 22.7218 17.7596C22.7218 15.0112 20.5079 12.7973 17.7596 12.7973C15.0112 12.7973 12.7973 15.0112 12.7973 17.7596ZM22.7982 11.9575C22.7982 12.6446 23.4089 13.2554 24.096 13.2554C24.8594 13.2554 25.3938 12.6446 25.3938 11.9575C25.3938 11.2704 24.7831 10.6597 24.096 10.6597C23.4089 10.6597 22.7982 11.2704 22.7982 11.9575Z" fill="#DBDBDB"/>
</g>
</svg>
