<svg width="35" height="35" viewBox="0 0 35 35" fill="none" xmlns="http://www.w3.org/2000/svg">
<path fill-rule="evenodd" clip-rule="evenodd" d="M7 3C4.79086 3 3 4.79086 3 7V28C3 30.2091 4.79086 32 7 32H28C30.2091 32 32 30.2091 32 28V7C32 4.79086 30.2091 3 28 3H7ZM28.876 9.99275C29.5454 10.6621 29.8323 12.4779 29.8323 12.4779C29.8323 12.4779 30.1191 14.486 30.1191 16.6842V18.5956C30.1191 20.7939 29.8323 22.802 29.8323 22.802C29.8323 22.802 29.641 24.5221 28.876 25.2871C27.9209 26.339 26.869 26.339 26.3909 26.339C22.7582 26.6259 17.5 26.6259 17.5 26.6259C17.5 26.6259 10.9041 26.4346 8.896 26.339C8.80942 26.3246 8.70762 26.3123 8.59389 26.2986C7.95392 26.2216 6.93595 26.0991 6.124 25.2871C5.45462 24.6178 5.16775 22.802 5.16775 22.802C5.16775 22.802 4.88087 20.7939 4.88087 18.5956V16.6842C4.88087 14.6761 5.16775 12.4779 5.16775 12.4779C5.16775 12.4779 5.359 10.7578 6.124 9.99275C7.07912 8.94088 8.131 8.94088 8.60913 8.94088C12.2418 8.654 17.5 8.654 17.5 8.654C17.5 8.654 22.7582 8.654 26.3909 8.94088C26.4647 8.95568 26.5524 8.9682 26.6513 8.98232C27.1913 9.05943 28.0678 9.18457 28.876 9.99275ZM13.7717 12.4779V22.8976V22.8988L23.6177 17.6405L13.7717 12.4779Z" fill="#DBDBDB"/>
</svg>
