<svg width="35" height="35" viewBox="0 0 35 35" fill="none" xmlns="http://www.w3.org/2000/svg">
<path fill-rule="evenodd" clip-rule="evenodd" d="M6.35271 3.51855H28.7308C30.5829 3.51855 32.085 4.98856 32.085 6.80418V28.7142C32.085 30.5283 30.5829 31.9998 28.7308 31.9998H6.35271C4.49917 31.9998 3 30.5283 3 28.7142V6.80418C3 4.98856 4.49917 3.51855 6.35271 3.51855ZM15.1591 19.031L7.0512 7.99981H13.3001L18.6155 15.2317L25.1941 7.99981H27.0303L19.436 16.3481L28 27.9998H21.7511L15.9795 20.1475L8.83628 27.9998H7L15.1591 19.031ZM12.6224 9.37614H9.75158L22.4284 26.6233H25.2992L12.6224 9.37614Z" fill="#DBDBDB"/>
</svg>
